  0
SECTION
  2
HEADER
  9
$ACADVER
  1
AC1009
  9
$INSBASE
 10
0.0
 20
0.0
 30
0.0
  9
$EXTMIN
 10
18.1580924681413691
 20
-534.4854598886317945
 30
0.0
  9
$EXTMAX
 10
2995.8043596903339676
 20
13.3767419594200891
 30
0.0
  9
$LIMMIN
 10
0.0
 20
0.0
  9
$LIMMAX
 10
12.0
 20
9.0
  9
$ORTHOMODE
 70
     1
  9
$REGENMODE
 70
     1
  9
$FILLMODE
 70
     1
  9
$QTEXTMODE
 70
     0
  9
$MIRRTEXT
 70
     0
  9
$DRAGMODE
 70
     2
  9
$LTSCALE
 40
1.0
  9
$OSMODE
 70
  4095
  9
$ATTMODE
 70
     1
  9
$TEXTSIZE
 40
0.2
  9
$TRACEWID
 40
0.05
  9
$TEXTSTYLE
  7
STANDARD
  9
$CLAYER
  8
0
  9
$CELTYPE
  6
BYLAYER
  9
$CECOLOR
 62
   256
  9
$DIMSCALE
 40
1.0
  9
$DIMASZ
 40
0.18
  9
$DIMEXO
 40
0.0625
  9
$DIMDLI
 40
0.38
  9
$DIMRND
 40
0.0
  9
$DIMDLE
 40
0.0
  9
$DIMEXE
 40
0.18
  9
$DIMTP
 40
0.0
  9
$DIMTM
 40
0.0
  9
$DIMTXT
 40
0.18
  9
$DIMCEN
 40
0.09
  9
$DIMTSZ
 40
0.0
  9
$DIMTOL
 70
     0
  9
$DIMLIM
 70
     0
  9
$DIMTIH
 70
     1
  9
$DIMTOH
 70
     1
  9
$DIMSE1
 70
     0
  9
$DIMSE2
 70
     0
  9
$DIMTAD
 70
     0
  9
$DIMZIN
 70
     0
  9
$DIMBLK
  1

  9
$DIMASO
 70
     1
  9
$DIMSHO
 70
     1
  9
$DIMPOST
  1

  9
$DIMAPOST
  1

  9
$DIMALT
 70
     0
  9
$DIMALTD
 70
     2
  9
$DIMALTF
 40
25.3999999999999986
  9
$DIMLFAC
 40
1.0
  9
$DIMTOFL
 70
     0
  9
$DIMTVP
 40
0.0
  9
$DIMTIX
 70
     0
  9
$DIMSOXD
 70
     0
  9
$DIMSAH
 70
     0
  9
$DIMBLK1
  1

  9
$DIMBLK2
  1

  9
$DIMSTYLE
  2
STANDARD
  9
$DIMCLRD
 70
     0
  9
$DIMCLRE
 70
     0
  9
$DIMCLRT
 70
     0
  9
$DIMTFAC
 40
1.0
  9
$DIMGAP
 40
0.09
  9
$LUNITS
 70
     2
  9
$LUPREC
 70
     4
  9
$SKETCHINC
 40
0.1
  9
$FILLETRAD
 40
0.0
  9
$AUNITS
 70
     0
  9
$AUPREC
 70
     0
  9
$MENU
  1
.
  9
$ELEVATION
 40
0.0
  9
$PELEVATION
 40
0.0
  9
$THICKNESS
 40
0.0
  9
$LIMCHECK
 70
     0
  9
$BLIPMODE
 70
     0
  9
$CHAMFERA
 40
0.0
  9
$CHAMFERB
 40
0.0
  9
$SKPOLY
 70
     0
  9
$TDCREATE
 40
2460157.5377430561929941
  9
$TDUPDATE
 40
2460158.5045486111193895
  9
$TDINDWG
 40
0.0659676968
  9
$TDUSRTIMER
 40
0.0659561227
  9
$USRTIMER
 70
     1
  9
$ANGBASE
 50
0.0
  9
$ANGDIR
 70
     0
  9
$PDMODE
 70
     0
  9
$PDSIZE
 40
0.0
  9
$PLINEWID
 40
0.0
  9
$COORDS
 70
     1
  9
$SPLFRAME
 70
     0
  9
$SPLINETYPE
 70
     6
  9
$SPLINESEGS
 70
     8
  9
$ATTDIA
 70
     1
  9
$ATTREQ
 70
     1
  9
$HANDLING
 70
     1
  9
$HANDSEED
  5
51C
  9
$SURFTAB1
 70
     6
  9
$SURFTAB2
 70
     6
  9
$SURFTYPE
 70
     6
  9
$SURFU
 70
     6
  9
$SURFV
 70
     6
  9
$UCSNAME
  2

  9
$UCSORG
 10
0.0
 20
0.0
 30
0.0
  9
$UCSXDIR
 10
1.0
 20
0.0
 30
0.0
  9
$UCSYDIR
 10
0.0
 20
1.0
 30
0.0
  9
$PUCSNAME
  2

  9
$PUCSORG
 10
0.0
 20
0.0
 30
0.0
  9
$PUCSXDIR
 10
1.0
 20
0.0
 30
0.0
  9
$PUCSYDIR
 10
0.0
 20
1.0
 30
0.0
  9
$USERI1
 70
     0
  9
$USERI2
 70
     0
  9
$USERI3
 70
     0
  9
$USERI4
 70
     0
  9
$USERI5
 70
     0
  9
$USERR1
 40
0.0
  9
$USERR2
 40
0.0
  9
$USERR3
 40
0.0
  9
$USERR4
 40
0.0
  9
$USERR5
 40
0.0
  9
$WORLDVIEW
 70
     1
  9
$SHADEDGE
 70
     3
  9
$SHADEDIF
 70
    70
  9
$TILEMODE
 70
     1
  9
$MAXACTVP
 70
    64
  9
$PLIMCHECK
 70
     0
  9
$PEXTMIN
 10
0.0
 20
0.0
 30
0.0
  9
$PEXTMAX
 10
0.0
 20
0.0
 30
0.0
  9
$PLIMMIN
 10
0.0
 20
0.0
  9
$PLIMMAX
 10
12.0
 20
9.0
  9
$UNITMODE
 70
     0
  9
$VISRETAIN
 70
     1
  9
$PLINEGEN
 70
     0
  9
$PSLTSCALE
 70
     1
  0
ENDSEC
  0
SECTION
  2
TABLES
  0
TABLE
  2
VPORT
 70
     1
  0
VPORT
  2
*ACTIVE
 70
     0
 10
0.0
 20
0.0
 11
1.0
 21
1.0
 12
2507.665589297283077
 22
-422.5838740199450854
 13
0.0
 23
0.0
 14
0.5
 24
0.5
 15
0.5
 25
0.5
 16
0.0
 26
0.0
 36
1.0
 17
0.0
 27
0.0
 37
0.0
 40
8675.2637968083163287
 41
2.625242718446601
 42
50.0
 43
0.0
 44
0.0
 50
0.0
 51
0.0
 71
     0
 72
  1000
 73
     1
 74
     3
 75
     0
 76
     0
 77
     0
 78
     0
  0
ENDTAB
  0
TABLE
  2
LTYPE
 70
     2
  0
LTYPE
  2
CONTINUOUS
 70
     0
  3
Solid line
 72
    65
 73
     0
 40
0.0
  0
ENDTAB
  0
TABLE
  2
LAYER
 70
     2
  0
LAYER
  2
0
 70
     0
 62
     7
  6
CONTINUOUS
  0
LAYER
  2
DEFPOINTS
 70
     0
 62
     7
  6
CONTINUOUS
  0
ENDTAB
  0
TABLE
  2
STYLE
 70
     2
  0
STYLE
  2
STANDARD
 70
     0
 40
0.0
 41
1.0
 50
0.0
 71
     0
 42
0.2
  3
txt
  4

  0
STYLE
  2
ANNOTATIVE
 70
     0
 40
0.0
 41
1.0
 50
0.0
 71
     0
 42
0.2
  3
txt
  4

  0
ENDTAB
  0
TABLE
  2
VIEW
 70
     0
  0
ENDTAB
  0
TABLE
  2
UCS
 70
     0
  0
ENDTAB
  0
TABLE
  2
APPID
 70
     8
  0
APPID
  2
ACAD
 70
     0
  0
APPID
  2
ACADANNOPO
 70
     0
  0
APPID
  2
ACADANNOTATIVE
 70
     0
  0
APPID
  2
ACAD_DSTYLE_DIMJAG
 70
     0
  0
APPID
  2
ACAD_DSTYLE_DIMTALN
 70
     0
  0
APPID
  2
ACAD_MLEADERVER
 70
     0
  0
APPID
  2
ACAD_NAV_VCDISPLAY
 70
     0
  0
APPID
  2
ACAD_EXEMPT_FROM_CAD_STANDARDS
 70
     0
  0
ENDTAB
  0
TABLE
  2
DIMSTYLE
 70
     3
  0
DIMSTYLE
  2
STANDARD
 70
     0
  3

  4

  5

  6

  7

 40
1.0
 41
0.18
 42
0.0625
 43
0.38
 44
0.18
 45
0.0
 46
0.0
 47
0.0
 48
0.0
140
0.18
141
0.09
142
0.0
143
25.3999999999999986
144
1.0
145
0.0
146
1.0
147
0.09
 71
     0
 72
     0
 73
     1
 74
     1
 75
     0
 76
     0
 77
     0
 78
     0
170
     0
171
     2
172
     0
173
     0
174
     0
175
     0
176
     0
177
     0
178
     0
  0
DIMSTYLE
  2
ANNOTATIVE
 70
     0
  3

  4

  5

  6

  7

 40
0.0
 41
0.18
 42
0.0625
 43
0.38
 44
0.18
 45
0.0
 46
0.0
 47
0.0
 48
0.0
140
0.18
141
0.09
142
0.0
143
25.3999999999999986
144
1.0
145
0.0
146
1.0
147
0.09
 71
     0
 72
     0
 73
     1
 74
     1
 75
     0
 76
     0
 77
     0
 78
     0
170
     0
171
     2
172
     0
173
     0
174
     0
175
     0
176
     0
177
     0
178
     0
  0
ENDTAB
  0
ENDSEC
  0
SECTION
  2
BLOCKS
  0
BLOCK
  8
0
  2
$MODEL_SPACE
 70
     0
 10
0.0
 20
0.0
 30
0.0
  3
$MODEL_SPACE
  1

  0
ENDBLK
  5
21
  8
0
  0
BLOCK
 67
     1
  8
0
  2
$PAPER_SPACE
 70
     0
 10
0.0
 20
0.0
 30
0.0
  3
$PAPER_SPACE
  1

  0
ENDBLK
  5
5B
 67
     1
  8
0
  0
BLOCK
  8
0
  2
*U1
 70
     1
 10
0.0
 20
0.0
 30
0.0
  3
*U1
  1

  0
ARC
  5
1F1
  8
0
 10
-7.6221252039190404
 20
-3.1568508637221981
 30
0.0
 40
6.7499999999999947
 50
112.4978391867551011
 51
292.4978391867550727
  0
ARC
  5
1F2
  8
0
 10
7.6221252039185838
 20
3.1568508637221981
 30
0.0
 40
6.7499999999999947
 50
292.4978391867550727
 51
112.4978391867551011
  0
LINE
  5
1F3
  8
0
 10
5.0392472245098361
 20
9.3931351214743728
 30
0.0
 11
-10.2050031833284702
 21
3.0794333940292091
 31
0.0
  0
LINE
  5
1F4
  8
0
 10
10.2050031833277899
 20
-3.0794333940292371
 30
0.0
 11
-5.0392472245100626
 21
-9.3931351214740886
 31
0.0
  0
ENDBLK
  5
1EC
  8
0
  0
BLOCK
  8
0
  2
*U2
 70
     1
 10
0.0
 20
0.0
 30
0.0
  3
*U2
  1

  0
INSERT
  5
203
  8
0
  6
BYBLOCK
 62
     0
  2
*U1
 10
1130.4633651486710733
 20
-57.8672341951555609
 30
0.0
  0
INSERT
  5
204
  8
0
  6
BYBLOCK
 62
     0
  2
*U1
 10
931.8250620608472445
 20
-122.4004492108683024
 30
0.0
 50
351.0000000000002274
  0
INSERT
  5
205
  8
0
  6
BYBLOCK
 62
     0
  2
*U1
 10
725.5371071370911977
 20
-155.0652765829642874
 30
0.0
 50
342.0000000000001137
  0
INSERT
  5
206
  8
0
  6
BYBLOCK
 62
     0
  2
*U1
 10
516.6789944580965539
 20
-155.0573998531951929
 30
0.0
 50
333.0
  0
INSERT
  5
207
  8
0
  6
BYBLOCK
 62
     0
  2
*U1
 10
310.3935039183562026
 20
-122.3770129727895011
 30
0.0
 50
324.0000000000001137
  0
INSERT
  5
208
  8
0
  6
BYBLOCK
 62
     0
  2
*U1
 10
111.7600689172495976
 20
-57.8288155267286967
 30
0.0
 50
315.0000000000001137
  0
ENDBLK
  5
1EF
  8
0
  0
BLOCK
  8
0
  2
*U3
 70
     1
 10
0.0
 20
0.0
 30
0.0
  3
*U3
  1

  0
ARC
  5
240
  8
0
 10
-7.621109723518658
 20
-3.1593015972025551
 30
0.0
 40
6.7499999999999973
 50
112.5162626624192939
 51
292.5162626624194218
  0
ARC
  5
241
  8
0
 10
7.621109723518658
 20
3.1593015972025551
 30
0.0
 40
6.7499999999999973
 50
292.5162626624194218
 51
112.5162626624192939
  0
LINE
  5
242
  8
0
 10
5.0362265985349941
 20
9.3947550073546608
 30
0.0
 11
-10.2059928485027704
 21
3.076151812949091
 31
0.0
  0
LINE
  5
243
  8
0
 10
10.2059928485027704
 20
-3.0761518129488632
 30
0.0
 11
-5.0362265985349941
 21
-9.3947550073543198
 31
0.0
  0
ENDBLK
  5
23B
  8
0
  0
BLOCK
  8
0
  2
*U4
 70
     1
 10
0.0
 20
0.0
 30
0.0
  3
*U4
  1

  0
INSERT
  5
252
  8
0
  6
BYBLOCK
 62
     0
  2
*U3
 10
2904.1550173723530861
 20
-181.0082409761791951
 30
0.0
  0
INSERT
  5
253
  8
0
  6
BYBLOCK
 62
     0
  2
*U3
 10
2705.537475228538824
 20
-245.60532486256119
 30
0.0
 50
351.0000000000002274
  0
INSERT
  5
254
  8
0
  6
BYBLOCK
 62
     0
  2
*U3
 10
2499.2600343545050237
 20
-278.3364825007136005
 30
0.0
 50
342.0000000000001137
  0
INSERT
  5
255
  8
0
  6
BYBLOCK
 62
     0
  2
*U3
 10
2290.4019299401447824
 20
-278.3957641611007148
 30
0.0
 50
333.0
  0
INSERT
  5
256
  8
0
  6
BYBLOCK
 62
     0
  2
*U3
 10
2084.1059416764519483
 20
-245.7817101324995122
 30
0.0
 41
1.0000000000000011
 42
1.0000000000000011
 43
1.0000000000000011
 50
324.0000000000001137
  0
INSERT
  5
257
  8
0
  6
BYBLOCK
 62
     0
  2
*U3
 10
1885.4517614516080357
 20
-181.297386664933299
 30
0.0
 41
1.0000000000000011
 42
1.0000000000000011
 43
1.0000000000000011
 50
315.0000000000001137
  0
ENDBLK
  5
23E
  8
0
  0
BLOCK
  8
0
  2
*D5
 70
     1
 10
0.0
 20
0.0
 30
0.0
  3
*D5
  1

  0
LINE
  5
350
  8
0
 62
     0
 10
2874.5668596903360594
 20
-505.4854598886316808
 30
0.0
 11
2885.4139309887900708
 21
-505.4854598886316808
 31
0.0
  0
LINE
  5
351
  8
0
 62
     0
 10
2874.5668596903360594
 20
-534.4854598886317945
 30
0.0
 11
2885.4139309887900708
 21
-534.4854598886317945
 31
0.0
  0
LINE
  5
352
  8
0
 62
     0
 10
2885.2339309887897798
 20
-505.6654598886316876
 30
0.0
 11
2885.2339309887897798
 21
-519.8035567508418353
 31
0.0
  0
LINE
  5
353
  8
0
 62
     0
 10
2885.2339309887897798
 20
-534.3054598886318445
 30
0.0
 11
2885.2339309887897798
 21
-520.1673630264217536
 31
0.0
  0
SOLID
  5
354
  8
0
 62
     0
 10
2885.2039309887900345
 20
-505.6654598886316876
 30
0.0
 11
2885.2639309887908894
 21
-505.6654598886316876
 31
0.0
 12
2885.2339309887897798
 22
-505.4854598886316808
 32
0.0
 13
2885.2339309887897798
 23
-505.4854598886316808
 33
0.0
  0
SOLID
  5
355
  8
0
 62
     0
 10
2885.2039309887900345
 20
-534.3054598886318445
 30
0.0
 11
2885.2639309887908894
 21
-534.3054598886318445
 31
0.0
 12
2885.2339309887897798
 22
-534.4854598886317945
 32
0.0
 13
2885.2339309887897798
 23
-534.4854598886317945
 33
0.0
  0
INSERT
  5
356
  8
0
  2
*U10
 10
0.0
 20
0.0
 30
0.0
  0
POINT
  5
357
  8
DEFPOINTS
 62
     0
 10
2874.5043596903360594
 20
-505.4854598886316808
 30
0.0
  0
POINT
  5
358
  8
DEFPOINTS
 62
     0
 10
2874.5043596903360594
 20
-534.4854598886317945
 30
0.0
  0
POINT
  5
359
  8
DEFPOINTS
 62
     0
 10
2885.2339309887897798
 20
-534.4854598886317945
 30
0.0
  0
ENDBLK
  5
30F
  8
0
  0
BLOCK
  8
0
  2
*D6
 70
     1
 10
0.0
 20
0.0
 30
0.0
  3
*D6
  1

  0
LINE
  5
335
  8
0
 62
     0
 10
1071.2205924681420584
 20
-334.5232580405804015
 30
0.0
 11
1078.1157025095640165
 21
-334.5232580405804015
 31
0.0
  0
LINE
  5
336
  8
0
 62
     0
 10
1071.2205924681420584
 20
-359.5232580405804015
 30
0.0
 11
1078.1157025095640165
 21
-359.5232580405804015
 31
0.0
  0
LINE
  5
337
  8
0
 62
     0
 10
1077.9357025095639528
 20
-334.703258040580522
 30
0.0
 11
1077.9357025095639528
 21
-346.8413549027904992
 31
0.0
  0
LINE
  5
338
  8
0
 62
     0
 10
1077.9357025095639528
 20
-359.3432580405803947
 30
0.0
 11
1077.9357025095639528
 21
-347.2051611783703038
 31
0.0
  0
SOLID
  5
339
  8
0
 62
     0
 10
1077.9057025095639801
 20
-334.703258040580522
 30
0.0
 11
1077.9657025095639256
 21
-334.703258040580522
 31
0.0
 12
1077.9357025095639528
 22
-334.5232580405804015
 32
0.0
 13
1077.9357025095639528
 23
-334.5232580405804015
 33
0.0
  0
SOLID
  5
33A
  8
0
 62
     0
 10
1077.9057025095639801
 20
-359.3432580405803947
 30
0.0
 11
1077.9657025095639256
 21
-359.3432580405803947
 31
0.0
 12
1077.9357025095639528
 22
-359.5232580405804015
 32
0.0
 13
1077.9357025095639528
 23
-359.5232580405804015
 33
0.0
  0
INSERT
  5
33B
  8
0
  2
*U9
 10
0.0
 20
0.0
 30
0.0
  0
POINT
  5
33C
  8
DEFPOINTS
 62
     0
 10
1071.1580924681420584
 20
-334.5232580405804015
 30
0.0
  0
POINT
  5
33D
  8
DEFPOINTS
 62
     0
 10
1071.1580924681420584
 20
-359.5232580405804015
 30
0.0
  0
POINT
  5
33E
  8
DEFPOINTS
 62
     0
 10
1077.9357025095639528
 20
-359.5232580405804015
 30
0.0
  0
ENDBLK
  5
329
  8
0
  0
BLOCK
  8
0
  2
*D8
 70
     1
 10
0.0
 20
0.0
 30
0.0
  3
*D8
  1

  0
LINE
  5
3BD
  8
0
 62
     0
 10
471.2205924681425131
 20
-334.5232580405804015
 30
0.0
 11
475.1515367200119044
 21
-334.5232580405804015
 31
0.0
  0
LINE
  5
3BE
  8
0
 62
     0
 10
471.2205924681425131
 20
-359.5232580405804015
 30
0.0
 11
475.1515367200119044
 21
-359.5232580405804015
 31
0.0
  0
LINE
  5
3BF
  8
0
 62
     0
 10
474.9715367200118976
 20
-334.703258040580522
 30
0.0
 11
474.9715367200118976
 21
-346.8413549027904992
 31
0.0
  0
LINE
  5
3C0
  8
0
 62
     0
 10
474.9715367200118976
 20
-359.3432580405803947
 30
0.0
 11
474.9715367200118976
 21
-347.2051611783703038
 31
0.0
  0
SOLID
  5
3C1
  8
0
 62
     0
 10
474.9415367200119817
 20
-334.703258040580522
 30
0.0
 11
475.0015367200119272
 21
-334.703258040580522
 31
0.0
 12
474.9715367200118976
 22
-334.5232580405804015
 32
0.0
 13
474.9715367200118976
 23
-334.5232580405804015
 33
0.0
  0
SOLID
  5
3C2
  8
0
 62
     0
 10
474.9415367200119817
 20
-359.3432580405803947
 30
0.0
 11
475.0015367200119272
 21
-359.3432580405803947
 31
0.0
 12
474.9715367200118976
 22
-359.5232580405804015
 32
0.0
 13
474.9715367200118976
 23
-359.5232580405804015
 33
0.0
  0
INSERT
  5
3C3
  8
0
  2
*U11
 10
0.0
 20
0.0
 30
0.0
  0
POINT
  5
3C4
  8
DEFPOINTS
 62
     0
 10
471.1580924681426268
 20
-334.5232580405804015
 30
0.0
  0
POINT
  5
3C5
  8
DEFPOINTS
 62
     0
 10
471.1580924681426268
 20
-359.5232580405804015
 30
0.0
  0
POINT
  5
3C6
  8
DEFPOINTS
 62
     0
 10
474.9715367200118976
 20
-359.5232580405804015
 30
0.0
  0
ENDBLK
  5
3B1
  8
0
  0
BLOCK
  8
0
  2
*U9
 70
     1
 10
0.0
 20
0.0
 30
0.0
  3
*U9
  1

  0
TEXT
  5
50E
  8
0
 62
     0
 10
1077.4835538056070163
 20
-347.1117232520404059
 30
0.0
 40
0.18
  1
25.0000
  0
ENDBLK
  5
510
  8
0
  0
BLOCK
  8
0
  2
*U10
 70
     1
 10
0.0
 20
0.0
 30
0.0
  3
*U10
  1

  0
TEXT
  5
515
  8
0
 62
     0
 10
2884.7817822848342075
 20
-520.0739251000923105
 30
0.0
 40
0.18
  1
29.0000
  0
ENDBLK
  5
517
  8
0
  0
BLOCK
  8
0
  2
*U11
 70
     1
 10
0.0
 20
0.0
 30
0.0
  3
*U11
  1

  0
TEXT
  5
519
  8
0
 62
     0
 10
474.5193880160554158
 20
-347.1117232520402922
 30
0.0
 40
0.18
  1
25.0000
  0
ENDBLK
  5
51B
  8
0
  0
ENDSEC
  0
SECTION
  2
ENTITIES
  0
LINE
  5
1D4
  8
0
 10
18.1580924681423284
 20
13.3767419594196699
 30
0.0
 11
18.1580924681423284
 21
-359.5232580405802878
 31
0.0
  0
LINE
  5
1D5
  8
0
 10
18.1580924681423284
 20
-359.5232580405802878
 30
0.0
 11
1224.1580924681420584
 21
-359.5232580405802878
 31
0.0
  0
LINE
  5
1D6
  8
0
 10
1224.1580924681420584
 20
-359.5232580405802878
 30
0.0
 11
1224.1580924681420584
 21
13.3767419594196895
 31
0.0
  0
ARC
  5
1D7
  8
0
 10
621.1580924681425131
 20
1171.8356320370949106
 30
0.0
 40
1306.0
 50
242.5021608132244921
 51
297.4978391867754226
  0
CIRCLE
  5
209
  8
0
 10
171.1580924681423141
 20
-334.5232580405804015
 30
0.0
 40
2.0
  0
CIRCLE
  5
20A
  8
0
 10
471.1580924681422857
 20
-334.5232580405804015
 30
0.0
 40
2.0
  0
CIRCLE
  5
20B
  8
0
 10
771.158092468142172
 20
-334.5232580405804015
 30
0.0
 40
2.0
  0
CIRCLE
  5
20C
  8
0
 10
1071.1580924681420584
 20
-334.5232580405804015
 30
0.0
 40
2.0
  0
LINE
  5
20D
  8
0
 10
1793.104359690335059
 20
-110.7854598886314932
 30
0.0
 11
1793.104359690335059
 21
-534.4854598886314534
 31
0.0
  0
LINE
  5
20E
  8
0
 10
1793.104359690335059
 20
-534.4854598886314534
 30
0.0
 11
2995.8043596903339676
 21
-534.4854598886314534
 31
0.0
  0
LINE
  5
20F
  8
0
 10
2995.8043596903339676
 20
-534.4854598886314534
 30
0.0
 11
2995.8043596903339676
 21
-110.7854598886314932
 31
0.0
  0
ARC
  5
210
  8
0
 10
2394.454359690334968
 20
1048.5307944181899984
 30
0.0
 40
1306.0
 50
242.5837373375526056
 51
297.4162626624474228
  0
CIRCLE
  5
211
  8
0
 10
2874.5043596903351499
 20
-509.4854598886315102
 30
0.0
 40
2.0
  0
CIRCLE
  5
212
  8
0
 10
2554.5043596903351499
 20
-509.4854598886315102
 30
0.0
 40
2.0
  0
CIRCLE
  5
213
  8
0
 10
2234.5043596903351499
 20
-509.4854598886315102
 30
0.0
 40
2.0
  0
CIRCLE
  5
214
  8
0
 10
1914.5043596903340131
 20
-509.4854598886315102
 30
0.0
 40
2.0
  0
ARC
  5
216
  8
0
 10
1122.8412399447520329
 20
-61.0240850588777519
 30
0.0
 40
6.7499999999999947
 50
112.4978391867546037
 51
292.4978391867546748
  0
ARC
  5
217
  8
0
 10
1138.0854903525889767
 20
-54.7103833314333627
 30
0.0
 40
6.7499999999999947
 50
292.4978391867546748
 51
112.4978391867546037
  0
LINE
  5
218
  8
0
 10
1135.5026123731809093
 20
-48.474099073681181
 30
0.0
 11
1120.2583619653419191
 21
-54.7878008011263589
 31
0.0
  0
LINE
  5
219
  8
0
 10
1140.6683683319979536
 20
-60.9466675891847984
 30
0.0
 11
1125.4241179241610098
 21
-67.2603693166296495
 31
0.0
  0
ARC
  5
21A
  8
0
 10
923.8029375903018945
 20
-124.326070923219703
 30
0.0
 40
6.7499999999999947
 50
103.4978391867540068
 51
283.4978391867539926
  0
ARC
  5
21B
  8
0
 10
939.8471865313922535
 20
-120.4748274985169019
 30
0.0
 40
6.7499999999999947
 50
283.4978391867539926
 51
103.4978391867540068
  0
LINE
  5
21C
  8
0
 10
938.2716778576506158
 20
-113.9112711135251033
 30
0.0
 11
922.227428916559461
 21
-117.7625145382285012
 31
0.0
  0
LINE
  5
21D
  8
0
 10
941.4226952051344597
 20
-127.0383838835081036
 30
0.0
 11
925.3784462640438733
 21
-130.8896273082112884
 31
0.0
  0
ARC
  5
21E
  8
0
 10
717.3125147282892158
 20
-155.7122539466145952
 30
0.0
 40
6.7499999999999973
 50
94.4978391867536942
 51
274.4978391867537084
  0
ARC
  5
21F
  8
0
 10
733.7616995458929523
 20
-154.4182992193138091
 30
0.0
 40
6.7499999999999973
 50
274.4978391867537084
 51
94.4978391867536942
  0
LINE
  5
220
  8
0
 10
733.2323544301791571
 20
-147.6890872484756017
 30
0.0
 11
716.7831696125747385
 21
-148.983041975777013
 31
0.0
  0
LINE
  5
221
  8
0
 10
734.2910446616070885
 20
-161.1475111901513912
 30
0.0
 11
717.8418598440031246
 21
-162.4414659174526889
 31
0.0
  0
ARC
  5
222
  8
0
 10
508.4544508719998248
 20
-154.4098021382565946
 30
0.0
 40
6.75
 50
85.497839186755769
 51
265.4978391867558116
  0
ARC
  5
223
  8
0
 10
524.9035380441933967
 20
-155.7049975681333933
 30
0.0
 40
6.75
 50
265.4978391867558116
 51
85.497839186755769
  0
LINE
  5
224
  8
0
 10
525.4333907200523299
 20
-148.9758255431449072
 30
0.0
 11
508.9843035478579054
 21
-147.6806301132687054
 31
0.0
  0
LINE
  5
225
  8
0
 10
524.3736853683349182
 20
-162.4341695931213962
 30
0.0
 11
507.9245981961411189
 21
-161.1389741632449955
 31
0.0
  0
ARC
  5
226
  8
0
 10
302.3715247137492952
 20
-120.4507861842575949
 30
0.0
 40
6.75
 50
76.4978391867568348
 51
256.4978391867568916
  0
ARC
  5
227
  8
0
 10
318.4154831229624847
 20
-124.3032397613210946
 30
0.0
 40
6.75
 50
256.4978391867568916
 51
76.4978391867568348
  0
LINE
  5
228
  8
0
 10
319.9914868590344099
 20
-117.7398022302791958
 30
0.0
 11
303.9475284498201972
 21
-113.8873486532159944
 31
0.0
  0
LINE
  5
229
  8
0
 10
316.8394793868912984
 20
-130.8666772923627093
 30
0.0
 11
300.7955209776778247
 21
-127.0142237152994937
 31
0.0
  0
ARC
  5
22A
  8
0
 10
104.1381818455730013
 20
-54.6713897609172506
 30
0.0
 40
6.75
 50
67.497839186755499
 51
247.497839186755499
  0
ARC
  5
22B
  8
0
 10
119.3819559889259949
 20
-60.9862412925398516
 30
0.0
 40
6.75
 50
247.497839186755499
 51
67.497839186755499
  0
LINE
  5
22C
  8
0
 10
121.9653043427721002
 20
-54.7501518702590317
 30
0.0
 11
106.7215301994180976
 21
-48.4353003386364733
 31
0.0
  0
LINE
  5
22D
  8
0
 10
116.7986076350806997
 20
-67.2223307148204725
 30
0.0
 11
101.5548334917272939
 21
-60.9074791831980207
 31
0.0
  0
ARC
  5
258
  8
0
 10
2896.5339076488348837
 20
-184.1675425733816951
 30
0.0
 40
6.7499999999999973
 50
112.5162626624200044
 51
292.5162626624199902
  0
ARC
  5
259
  8
0
 10
2911.7761270958731075
 20
-177.8489393789766098
 30
0.0
 40
6.7499999999999973
 50
292.5162626624199902
 51
112.5162626624200044
  0
LINE
  5
25A
  8
0
 10
2909.1912439708889906
 20
-171.6134859688245058
 30
0.0
 11
2893.9490245238512216
 21
-177.9320891632301027
 31
0.0
  0
LINE
  5
25B
  8
0
 10
2914.3610102208558601
 20
-184.0843927891280032
 30
0.0
 11
2899.1187907738190006
 21
-190.4029959835334864
 31
0.0
  0
ARC
  5
25C
  8
0
 10
2697.5159703569652265
 20
-247.5335259919303041
 30
0.0
 40
6.75
 50
103.5162626624277067
 51
283.5162626624277777
  0
ARC
  5
25D
  8
0
 10
2713.5589801001137857
 20
-243.6771237331921895
 30
0.0
 40
6.75
 50
283.5162626624277777
 51
103.5162626624277067
  0
LINE
  5
25E
  8
0
 10
2711.9813609942671064
 20
-237.1140742928124894
 30
0.0
 11
2695.938351251117183
 21
-240.9704765515508882
 31
0.0
  0
LINE
  5
25F
  8
0
 10
2715.1365992059609198
 20
-250.2401731735714066
 30
0.0
 11
2699.0935894628109963
 21
-254.0965754323096917
 31
0.0
  0
ARC
  5
260
  8
0
 10
2491.0356504066608068
 20
-278.9861044511113732
 30
0.0
 40
6.75
 50
94.5162626624103126
 51
274.5162626624103837
  0
ARC
  5
261
  8
0
 10
2507.4844183023487858
 20
-277.6868605503158278
 30
0.0
 40
6.75
 50
274.5162626624103837
 51
94.5162626624103126
  0
LINE
  5
262
  8
0
 10
2506.9529094338417963
 20
-270.9578191384429147
 30
0.0
 11
2490.5041415381529077
 21
-272.2570630392386875
 31
0.0
  0
LINE
  5
263
  8
0
 10
2508.0159271708557753
 20
-284.4159019621882862
 30
0.0
 11
2491.5671592751668868
 21
-285.7151458629840022
 31
0.0
  0
ARC
  5
264
  8
0
 10
2282.1771785439927953
 20
-277.7508110841367852
 30
0.0
 40
6.7500000000000018
 50
85.5162626624192796
 51
265.5162626624193081
  0
ARC
  5
265
  8
0
 10
2298.6266813362981338
 20
-279.0407172380645875
 30
0.0
 40
6.7500000000000018
 50
265.5162626624193081
 51
85.5162626624192796
  0
LINE
  5
266
  8
0
 10
2299.1543702174508326
 20
-272.3113751866669077
 30
0.0
 11
2282.7048674251450393
 21
-271.0214690327392191
 31
0.0
  0
LINE
  5
267
  8
0
 10
2298.0989924551458898
 20
-285.7700592894619831
 30
0.0
 11
2281.6494896628400966
 21
-284.4801531355341808
 31
0.0
  0
ARC
  5
268
  8
0
 10
2076.0833435077488502
 20
-243.858062913405206
 30
0.0
 40
6.7500000000000071
 50
76.5162626624146327
 51
256.5162626624147038
  0
ARC
  5
269
  8
0
 10
2092.1285398451550464
 20
-247.7053573515937899
 30
0.0
 40
6.7500000000000071
 50
256.5162626624147038
 51
76.5162626624146327
  0
LINE
  5
26A
  8
0
 10
2093.7024330244139492
 20
-241.1414133953823864
 30
0.0
 11
2077.6572366870082078
 21
-237.2941189571940015
 31
0.0
  0
LINE
  5
26B
  8
0
 10
2090.5546466658961435
 20
-254.2693013078047954
 30
0.0
 11
2074.5094503284899474
 21
-250.4220068696162969
 31
0.0
  0
ARC
  5
26C
  8
0
 10
1877.8288595027458996
 20
-178.1424118824619995
 30
0.0
 40
6.7500000000000071
 50
67.5162626624208997
 51
247.5162626624208997
  0
ARC
  5
26D
  8
0
 10
1893.0746634004699445
 20
-184.4523614474047122
 30
0.0
 40
6.7500000000000071
 50
247.5162626624208997
 51
67.5162626624208997
  0
LINE
  5
26E
  8
0
 10
1895.6560064043110287
 20
-178.2154416710627061
 30
0.0
 11
1880.4102025065860744
 21
-171.9054921061199934
 31
0.0
  0
LINE
  5
26F
  8
0
 10
1890.4933203966309065
 20
-190.6892812237464909
 30
0.0
 11
1875.2475164989050427
 21
-184.379331658803693
 31
0.0
  0
ENDSEC
  0
EOF
