  0
SECTION
  2
HEADER
  9
$ACADVER
  1
AC1009
  9
$INSBASE
 10
0.0
 20
0.0
 30
0.0
  9
$EXTMIN
 10
-132.2160823082606953
 20
-339.2927814554091128
 30
0.0
  9
$EXTMAX
 10
274.7568507580235746
 20
256.7072185445910009
 30
0.0
  9
$LIMMIN
 10
0.0
 20
0.0
  9
$LIMMAX
 10
12.0
 20
9.0
  9
$ORTHOMODE
 70
     1
  9
$REGENMODE
 70
     1
  9
$FILLMODE
 70
     1
  9
$QTEXTMODE
 70
     0
  9
$MIRRTEXT
 70
     0
  9
$DRAGMODE
 70
     2
  9
$LTSCALE
 40
1.0
  9
$OSMODE
 70
  4095
  9
$ATTMODE
 70
     1
  9
$TEXTSIZE
 40
0.2
  9
$TRACEWID
 40
0.05
  9
$TEXTSTYLE
  7
STANDARD
  9
$CLAYER
  8
0
  9
$CELTYPE
  6
BYLAYER
  9
$CECOLOR
 62
   256
  9
$DIMSCALE
 40
1.0
  9
$DIMASZ
 40
0.18
  9
$DIMEXO
 40
0.0625
  9
$DIMDLI
 40
0.38
  9
$DIMRND
 40
0.0
  9
$DIMDLE
 40
0.0
  9
$DIMEXE
 40
0.18
  9
$DIMTP
 40
0.0
  9
$DIMTM
 40
0.0
  9
$DIMTXT
 40
0.18
  9
$DIMCEN
 40
0.09
  9
$DIMTSZ
 40
0.0
  9
$DIMTOL
 70
     0
  9
$DIMLIM
 70
     0
  9
$DIMTIH
 70
     1
  9
$DIMTOH
 70
     1
  9
$DIMSE1
 70
     0
  9
$DIMSE2
 70
     0
  9
$DIMTAD
 70
     0
  9
$DIMZIN
 70
     0
  9
$DIMBLK
  1

  9
$DIMASO
 70
     1
  9
$DIMSHO
 70
     1
  9
$DIMPOST
  1

  9
$DIMAPOST
  1

  9
$DIMALT
 70
     0
  9
$DIMALTD
 70
     2
  9
$DIMALTF
 40
25.3999999999999986
  9
$DIMLFAC
 40
1.0
  9
$DIMTOFL
 70
     0
  9
$DIMTVP
 40
0.0
  9
$DIMTIX
 70
     0
  9
$DIMSOXD
 70
     0
  9
$DIMSAH
 70
     0
  9
$DIMBLK1
  1

  9
$DIMBLK2
  1

  9
$DIMSTYLE
  2
STANDARD
  9
$DIMCLRD
 70
     0
  9
$DIMCLRE
 70
     0
  9
$DIMCLRT
 70
     0
  9
$DIMTFAC
 40
1.0
  9
$DIMGAP
 40
0.09
  9
$LUNITS
 70
     2
  9
$LUPREC
 70
     4
  9
$SKETCHINC
 40
0.1
  9
$FILLETRAD
 40
4.0
  9
$AUNITS
 70
     0
  9
$AUPREC
 70
     0
  9
$MENU
  1
.
  9
$ELEVATION
 40
0.0
  9
$PELEVATION
 40
0.0
  9
$THICKNESS
 40
0.0
  9
$LIMCHECK
 70
     0
  9
$BLIPMODE
 70
     0
  9
$CHAMFERA
 40
0.0
  9
$CHAMFERB
 40
0.0
  9
$SKPOLY
 70
     0
  9
$TDCREATE
 40
2460072.2817592588253319
  9
$TDUPDATE
 40
2460158.6149768522009254
  9
$TDINDWG
 40
0.0083441435
  9
$TDUSRTIMER
 40
0.008342037
  9
$USRTIMER
 70
     1
  9
$ANGBASE
 50
0.0
  9
$ANGDIR
 70
     0
  9
$PDMODE
 70
     0
  9
$PDSIZE
 40
0.0
  9
$PLINEWID
 40
0.0
  9
$COORDS
 70
     1
  9
$SPLFRAME
 70
     0
  9
$SPLINETYPE
 70
     6
  9
$SPLINESEGS
 70
     8
  9
$ATTDIA
 70
     1
  9
$ATTREQ
 70
     1
  9
$HANDLING
 70
     1
  9
$HANDSEED
  5
3E1
  9
$SURFTAB1
 70
     6
  9
$SURFTAB2
 70
     6
  9
$SURFTYPE
 70
     6
  9
$SURFU
 70
     6
  9
$SURFV
 70
     6
  9
$UCSNAME
  2

  9
$UCSORG
 10
0.0
 20
0.0
 30
0.0
  9
$UCSXDIR
 10
1.0
 20
0.0
 30
0.0
  9
$UCSYDIR
 10
0.0
 20
1.0
 30
0.0
  9
$PUCSNAME
  2

  9
$PUCSORG
 10
0.0
 20
0.0
 30
0.0
  9
$PUCSXDIR
 10
1.0
 20
0.0
 30
0.0
  9
$PUCSYDIR
 10
0.0
 20
1.0
 30
0.0
  9
$USERI1
 70
     0
  9
$USERI2
 70
     0
  9
$USERI3
 70
     0
  9
$USERI4
 70
     0
  9
$USERI5
 70
     0
  9
$USERR1
 40
0.0
  9
$USERR2
 40
0.0
  9
$USERR3
 40
0.0
  9
$USERR4
 40
0.0
  9
$USERR5
 40
0.0
  9
$WORLDVIEW
 70
     1
  9
$SHADEDGE
 70
     3
  9
$SHADEDIF
 70
    70
  9
$TILEMODE
 70
     1
  9
$MAXACTVP
 70
    64
  9
$PLIMCHECK
 70
     0
  9
$PEXTMIN
 10
0.0
 20
0.0
 30
0.0
  9
$PEXTMAX
 10
0.0
 20
0.0
 30
0.0
  9
$PLIMMIN
 10
0.0
 20
0.0
  9
$PLIMMAX
 10
12.0
 20
9.0
  9
$UNITMODE
 70
     0
  9
$VISRETAIN
 70
     1
  9
$PLINEGEN
 70
     0
  9
$PSLTSCALE
 70
     1
  0
ENDSEC
  0
SECTION
  2
TABLES
  0
TABLE
  2
VPORT
 70
     1
  0
VPORT
  2
*ACTIVE
 70
     0
 10
0.0
 20
0.0
 11
1.0
 21
1.0
 12
-361.6100416101432984
 22
-70.7752612853332721
 13
0.0
 23
0.0
 14
0.5
 24
0.5
 15
0.5
 25
0.5
 16
0.0
 26
0.0
 36
1.0
 17
0.0
 27
0.0
 37
0.0
 40
1091.7679370319679037
 41
2.625242718446601
 42
50.0
 43
0.0
 44
0.0
 50
0.0
 51
0.0
 71
     0
 72
  1000
 73
     1
 74
     3
 75
     0
 76
     0
 77
     0
 78
     0
  0
ENDTAB
  0
TABLE
  2
LTYPE
 70
     2
  0
LTYPE
  2
CONTINUOUS
 70
     0
  3
Solid line
 72
    65
 73
     0
 40
0.0
  0
ENDTAB
  0
TABLE
  2
LAYER
 70
     2
  0
LAYER
  2
0
 70
     0
 62
     7
  6
CONTINUOUS
  0
LAYER
  2
DEFPOINTS
 70
     0
 62
     7
  6
CONTINUOUS
  0
ENDTAB
  0
TABLE
  2
STYLE
 70
     2
  0
STYLE
  2
STANDARD
 70
     0
 40
0.0
 41
1.0
 50
0.0
 71
     0
 42
0.2
  3
txt
  4

  0
STYLE
  2
ANNOTATIVE
 70
     0
 40
0.0
 41
1.0
 50
0.0
 71
     0
 42
0.2
  3
txt
  4

  0
ENDTAB
  0
TABLE
  2
VIEW
 70
     0
  0
ENDTAB
  0
TABLE
  2
UCS
 70
     0
  0
ENDTAB
  0
TABLE
  2
APPID
 70
     8
  0
APPID
  2
ACAD
 70
     0
  0
APPID
  2
ACADANNOPO
 70
     0
  0
APPID
  2
ACADANNOTATIVE
 70
     0
  0
APPID
  2
ACAD_DSTYLE_DIMJAG
 70
     0
  0
APPID
  2
ACAD_DSTYLE_DIMTALN
 70
     0
  0
APPID
  2
ACAD_MLEADERVER
 70
     0
  0
APPID
  2
ACAD_NAV_VCDISPLAY
 70
     0
  0
APPID
  2
ACAD_EXEMPT_FROM_CAD_STANDARDS
 70
     0
  0
ENDTAB
  0
TABLE
  2
DIMSTYLE
 70
     3
  0
DIMSTYLE
  2
STANDARD
 70
     0
  3

  4

  5

  6

  7

 40
1.0
 41
0.18
 42
0.0625
 43
0.38
 44
0.18
 45
0.0
 46
0.0
 47
0.0
 48
0.0
140
0.18
141
0.09
142
0.0
143
25.3999999999999986
144
1.0
145
0.0
146
1.0
147
0.09
 71
     0
 72
     0
 73
     1
 74
     1
 75
     0
 76
     0
 77
     0
 78
     0
170
     0
171
     2
172
     0
173
     0
174
     0
175
     0
176
     0
177
     0
178
     0
  0
DIMSTYLE
  2
ANNOTATIVE
 70
     0
  3

  4

  5

  6

  7

 40
0.0
 41
0.18
 42
0.0625
 43
0.38
 44
0.18
 45
0.0
 46
0.0
 47
0.0
 48
0.0
140
0.18
141
0.09
142
0.0
143
25.3999999999999986
144
1.0
145
0.0
146
1.0
147
0.09
 71
     0
 72
     0
 73
     1
 74
     1
 75
     0
 76
     0
 77
     0
 78
     0
170
     0
171
     2
172
     0
173
     0
174
     0
175
     0
176
     0
177
     0
178
     0
  0
ENDTAB
  0
ENDSEC
  0
SECTION
  2
BLOCKS
  0
BLOCK
  8
0
  2
$MODEL_SPACE
 70
     0
 10
0.0
 20
0.0
 30
0.0
  3
$MODEL_SPACE
  1

  0
ENDBLK
  5
21
  8
0
  0
BLOCK
 67
     1
  8
0
  2
$PAPER_SPACE
 70
     0
 10
0.0
 20
0.0
 30
0.0
  3
$PAPER_SPACE
  1

  0
ENDBLK
  5
5B
 67
     1
  8
0
  0
BLOCK
  8
0
  2
*D1
 70
     1
 10
0.0
 20
0.0
 30
0.0
  3
*D1
  1

  0
LINE
  5
2DA
  8
0
 62
     0
 10
-77.1535823082607806
 20
255.7072185445910861
 30
0.0
 11
274.4116461195515058
 21
255.7072185445911998
 31
0.0
  0
LINE
  5
2DB
  8
0
 62
     0
 10
-77.1535823082607806
 20
-338.2927814554091128
 30
0.0
 11
274.4116461195516763
 21
-338.2927814554089991
 31
0.0
  0
LINE
  5
2DC
  8
0
 62
     0
 10
274.2316461195516126
 20
255.5272185445911077
 30
0.0
 11
274.2316461195516126
 21
-41.11087831761904
 31
0.0
  0
LINE
  5
2DD
  8
0
 62
     0
 10
274.2316461195517263
 20
-338.112781455409106
 30
0.0
 11
274.2316461195516126
 21
-41.4746845931988375
 31
0.0
  0
SOLID
  5
2DE
  8
0
 62
     0
 10
274.2016461195515831
 20
255.5272185445911077
 30
0.0
 11
274.2616461195514717
 21
255.5272185445911077
 31
0.0
 12
274.2316461195516126
 22
255.7072185445911998
 32
0.0
 13
274.2316461195516126
 23
255.7072185445911998
 33
0.0
  0
SOLID
  5
2DF
  8
0
 62
     0
 10
274.2016461195516968
 20
-338.112781455409106
 30
0.0
 11
274.2616461195515853
 21
-338.112781455409106
 31
0.0
 12
274.2316461195517263
 22
-338.2927814554089991
 32
0.0
 13
274.2316461195517263
 23
-338.2927814554089991
 33
0.0
  0
INSERT
  5
2E0
  8
0
  2
*U9
 10
0.0
 20
0.0
 30
0.0
  0
POINT
  5
2E1
  8
DEFPOINTS
 62
     0
 10
-77.2160823082607806
 20
255.7072185445910861
 30
0.0
  0
POINT
  5
2E2
  8
DEFPOINTS
 62
     0
 10
-77.2160823082607806
 20
-338.2927814554091128
 30
0.0
  0
POINT
  5
2E3
  8
DEFPOINTS
 62
     0
 10
274.2316461195517263
 20
-338.2927814554089991
 30
0.0
  0
ENDBLK
  5
2CE
  8
0
  0
BLOCK
  8
0
  2
*D3
 70
     1
 10
0.0
 20
0.0
 30
0.0
  3
*D3
  1

  0
LINE
  5
2FA
  8
0
 62
     0
 10
-102.1535823082606953
 20
-289.2927814554091128
 30
0.0
 11
-97.5131913027457244
 21
-289.2927814554091128
 31
0.0
  0
LINE
  5
2FB
  8
0
 62
     0
 10
-102.6535821895851939
 20
-339.2927814554091128
 30
0.0
 11
-97.5131913027457244
 21
-339.2927814554091128
 31
0.0
  0
LINE
  5
2FC
  8
0
 62
     0
 10
-97.6931913027457455
 20
-289.4727814554091196
 30
0.0
 11
-97.6931913027457455
 21
-314.1108783176192105
 31
0.0
  0
LINE
  5
2FD
  8
0
 62
     0
 10
-97.6931913027457455
 20
-339.112781455409106
 30
0.0
 11
-97.6931913027457455
 21
-314.4746845931990151
 31
0.0
  0
SOLID
  5
2FE
  8
0
 62
     0
 10
-97.7231913027457466
 20
-289.4727814554091196
 30
0.0
 11
-97.6631913027457443
 21
-289.4727814554091196
 31
0.0
 12
-97.6931913027457455
 22
-289.2927814554091128
 32
0.0
 13
-97.6931913027457455
 23
-289.2927814554091128
 33
0.0
  0
SOLID
  5
2FF
  8
0
 62
     0
 10
-97.7231913027457466
 20
-339.112781455409106
 30
0.0
 11
-97.6631913027457443
 21
-339.112781455409106
 31
0.0
 12
-97.6931913027457455
 22
-339.2927814554091128
 32
0.0
 13
-97.6931913027457455
 23
-339.2927814554091128
 33
0.0
  0
INSERT
  5
300
  8
0
  2
*U10
 10
0.0
 20
0.0
 30
0.0
  0
POINT
  5
301
  8
DEFPOINTS
 62
     0
 10
-102.2160823082606953
 20
-289.2927814554091128
 30
0.0
  0
POINT
  5
302
  8
DEFPOINTS
 62
     0
 10
-102.7160821895851939
 20
-339.2927814554091128
 30
0.0
  0
POINT
  5
303
  8
DEFPOINTS
 62
     0
 10
-97.6931913027457455
 20
-339.2927814554091128
 30
0.0
  0
ENDBLK
  5
2EE
  8
0
  0
BLOCK
  8
0
  2
*D4
 70
     1
 10
0.0
 20
0.0
 30
0.0
  3
*D4
  1

  0
LINE
  5
314
  8
0
 62
     0
 10
-102.1535823082606953
 20
206.7072185445910861
 30
0.0
 11
159.5677057984028124
 21
206.7072185445910861
 31
0.0
  0
LINE
  5
315
  8
0
 62
     0
 10
-102.1535823082606953
 20
-289.2927814554091128
 30
0.0
 11
159.5677057984028977
 21
-289.2927814554091128
 31
0.0
  0
LINE
  5
316
  8
0
 62
     0
 10
159.3877057984028056
 20
206.5272185445911077
 30
0.0
 11
159.3877057984028056
 21
-41.1108783176190613
 31
0.0
  0
LINE
  5
317
  8
0
 62
     0
 10
159.3877057984028909
 20
-289.1127814554089923
 30
0.0
 11
159.3877057984028056
 21
-41.474684593198873
 31
0.0
  0
SOLID
  5
318
  8
0
 62
     0
 10
159.3577057984028045
 20
206.5272185445911077
 30
0.0
 11
159.4177057984026931
 21
206.5272185445911077
 31
0.0
 12
159.3877057984028056
 22
206.7072185445910861
 32
0.0
 13
159.3877057984028056
 23
206.7072185445910861
 33
0.0
  0
SOLID
  5
319
  8
0
 62
     0
 10
159.3577057984028897
 20
-289.1127814554089923
 30
0.0
 11
159.417705798402892
 21
-289.1127814554089923
 31
0.0
 12
159.3877057984028909
 22
-289.2927814554091128
 32
0.0
 13
159.3877057984028909
 23
-289.2927814554091128
 33
0.0
  0
INSERT
  5
31A
  8
0
  2
*U11
 10
0.0
 20
0.0
 30
0.0
  0
POINT
  5
31B
  8
DEFPOINTS
 62
     0
 10
-102.2160823082606953
 20
206.7072185445910861
 30
0.0
  0
POINT
  5
31C
  8
DEFPOINTS
 62
     0
 10
-102.2160823082606953
 20
-289.2927814554091128
 30
0.0
  0
POINT
  5
31D
  8
DEFPOINTS
 62
     0
 10
159.3877057984028909
 20
-289.2927814554091128
 30
0.0
  0
ENDBLK
  5
308
  8
0
  0
BLOCK
  8
0
  2
*D5
 70
     1
 10
0.0
 20
0.0
 30
0.0
  3
*D5
  1

  0
LINE
  5
330
  8
0
 62
     0
 10
-102.1535823082606953
 20
41.207218544591008
 30
0.0
 11
-26.5802483743157794
 21
41.2072185445910222
 31
0.0
  0
LINE
  5
331
  8
0
 62
     0
 10
-102.1535823082606953
 20
206.7072185445910861
 30
0.0
 11
-26.5802483743158113
 21
206.7072185445910861
 31
0.0
  0
LINE
  5
332
  8
0
 62
     0
 10
-26.7602483743157791
 20
41.3872185445910219
 30
0.0
 11
-26.7602483743158004
 21
123.775315406801198
 31
0.0
  0
LINE
  5
333
  8
0
 62
     0
 10
-26.7602483743158217
 20
206.5272185445911077
 30
0.0
 11
-26.7602483743158004
 21
124.1391216823810026
 31
0.0
  0
SOLID
  5
334
  8
0
 62
     0
 10
-26.7902483743157802
 20
41.3872185445910219
 30
0.0
 11
-26.7302483743157815
 21
41.3872185445910219
 31
0.0
 12
-26.7602483743157791
 22
41.2072185445910222
 32
0.0
 13
-26.7602483743157791
 23
41.2072185445910222
 33
0.0
  0
SOLID
  5
335
  8
0
 62
     0
 10
-26.7902483743158193
 20
206.5272185445911077
 30
0.0
 11
-26.7302483743158206
 21
206.5272185445911077
 31
0.0
 12
-26.7602483743158217
 22
206.7072185445910861
 32
0.0
 13
-26.7602483743158217
 23
206.7072185445910861
 33
0.0
  0
INSERT
  5
336
  8
0
  2
*U12
 10
0.0
 20
0.0
 30
0.0
  0
POINT
  5
337
  8
DEFPOINTS
 62
     0
 10
-102.2160823082606953
 20
41.207218544591008
 30
0.0
  0
POINT
  5
338
  8
DEFPOINTS
 62
     0
 10
-102.2160823082606953
 20
206.7072185445910861
 30
0.0
  0
POINT
  5
339
  8
DEFPOINTS
 62
     0
 10
-26.7602483743158217
 20
206.7072185445910861
 30
0.0
  0
ENDBLK
  5
324
  8
0
  0
BLOCK
  8
0
  2
*D6
 70
     1
 10
0.0
 20
0.0
 30
0.0
  3
*D6
  1

  0
LINE
  5
34A
  8
0
 62
     0
 10
-102.1535823082606953
 20
41.207218544591008
 30
0.0
 11
-38.2824819841520068
 21
41.2072185445910222
 31
0.0
  0
LINE
  5
34B
  8
0
 62
     0
 10
-102.1535823082606953
 20
-123.2927814554089991
 30
0.0
 11
-38.2824819841519783
 21
-123.2927814554089991
 31
0.0
  0
LINE
  5
34C
  8
0
 62
     0
 10
-38.4624819841520207
 20
41.0272185445910225
 30
0.0
 11
-38.4624819841519994
 21
-40.8608783176190968
 31
0.0
  0
LINE
  5
34D
  8
0
 62
     0
 10
-38.4624819841519781
 20
-123.1127814554090065
 30
0.0
 11
-38.4624819841519994
 21
-41.2246845931989014
 31
0.0
  0
SOLID
  5
34E
  8
0
 62
     0
 10
-38.4924819841520218
 20
41.0272185445910225
 30
0.0
 11
-38.4324819841520124
 21
41.0272185445910225
 31
0.0
 12
-38.4624819841520207
 22
41.2072185445910222
 32
0.0
 13
-38.4624819841520207
 23
41.2072185445910222
 33
0.0
  0
SOLID
  5
34F
  8
0
 62
     0
 10
-38.4924819841519792
 20
-123.1127814554090065
 30
0.0
 11
-38.4324819841519769
 21
-123.1127814554090065
 31
0.0
 12
-38.4624819841519781
 22
-123.2927814554089991
 32
0.0
 13
-38.4624819841519781
 23
-123.2927814554089991
 33
0.0
  0
INSERT
  5
350
  8
0
  2
*U13
 10
0.0
 20
0.0
 30
0.0
  0
POINT
  5
351
  8
DEFPOINTS
 62
     0
 10
-102.2160823082606953
 20
41.207218544591008
 30
0.0
  0
POINT
  5
352
  8
DEFPOINTS
 62
     0
 10
-102.2160823082606953
 20
-123.2927814554089991
 30
0.0
  0
POINT
  5
353
  8
DEFPOINTS
 62
     0
 10
-38.4624819841519781
 20
-123.2927814554089991
 30
0.0
  0
ENDBLK
  5
33E
  8
0
  0
BLOCK
  8
0
  2
*D7
 70
     1
 10
0.0
 20
0.0
 30
0.0
  3
*D7
  1

  0
LINE
  5
364
  8
0
 62
     0
 10
-102.1535823082606953
 20
-124.2927814554089991
 30
0.0
 11
-49.7531657539314907
 21
-124.2927814554089991
 31
0.0
  0
LINE
  5
365
  8
0
 62
     0
 10
-102.1535823082606953
 20
41.207218544591008
 30
0.0
 11
-49.7531657539315191
 21
41.2072185445910222
 31
0.0
  0
LINE
  5
366
  8
0
 62
     0
 10
-49.9331657539314904
 20
-124.1127814554090065
 30
0.0
 11
-49.9331657539315117
 21
-41.7246845931989014
 31
0.0
  0
LINE
  5
367
  8
0
 62
     0
 10
-49.9331657539315188
 20
41.0272185445910225
 30
0.0
 11
-49.9331657539315117
 21
-41.3608783176190968
 31
0.0
  0
SOLID
  5
368
  8
0
 62
     0
 10
-49.9631657539314915
 20
-124.1127814554090065
 30
0.0
 11
-49.9031657539314892
 21
-124.1127814554090065
 31
0.0
 12
-49.9331657539314904
 22
-124.2927814554089991
 32
0.0
 13
-49.9331657539314904
 23
-124.2927814554089991
 33
0.0
  0
SOLID
  5
369
  8
0
 62
     0
 10
-49.9631657539315199
 20
41.0272185445910225
 30
0.0
 11
-49.9031657539315177
 21
41.0272185445910225
 31
0.0
 12
-49.9331657539315188
 22
41.2072185445910222
 32
0.0
 13
-49.9331657539315188
 23
41.2072185445910222
 33
0.0
  0
INSERT
  5
36A
  8
0
  2
*U14
 10
0.0
 20
0.0
 30
0.0
  0
POINT
  5
36B
  8
DEFPOINTS
 62
     0
 10
-102.2160823082606953
 20
-124.2927814554089991
 30
0.0
  0
POINT
  5
36C
  8
DEFPOINTS
 62
     0
 10
-102.2160823082606953
 20
41.207218544591008
 30
0.0
  0
POINT
  5
36D
  8
DEFPOINTS
 62
     0
 10
-49.9331657539315188
 20
41.2072185445910222
 30
0.0
  0
ENDBLK
  5
358
  8
0
  0
BLOCK
  8
0
  2
*D8
 70
     1
 10
0.0
 20
0.0
 30
0.0
  3
*D8
  1

  0
LINE
  5
373
  8
0
 62
     0
 10
-102.1535823082606953
 20
-124.2927814554089991
 30
0.0
 11
-43.4332354810052124
 21
-124.2927814554089991
 31
0.0
  0
LINE
  5
374
  8
0
 62
     0
 10
-102.1535823082606953
 20
-289.2927814554091128
 30
0.0
 11
-43.4332354810051697
 21
-289.2927814554091128
 31
0.0
  0
LINE
  5
375
  8
0
 62
     0
 10
-43.6132354810052121
 20
-124.472781455409006
 30
0.0
 11
-43.6132354810051979
 21
-206.6108783176192105
 31
0.0
  0
LINE
  5
376
  8
0
 62
     0
 10
-43.6132354810051694
 20
-289.112781455409106
 30
0.0
 11
-43.6132354810051979
 21
-206.9746845931989867
 31
0.0
  0
SOLID
  5
377
  8
0
 62
     0
 10
-43.6432354810052132
 20
-124.472781455409006
 30
0.0
 11
-43.5832354810051967
 21
-124.472781455409006
 31
0.0
 12
-43.6132354810052121
 22
-124.2927814554089991
 32
0.0
 13
-43.6132354810052121
 23
-124.2927814554089991
 33
0.0
  0
SOLID
  5
378
  8
0
 62
     0
 10
-43.6432354810051706
 20
-289.112781455409106
 30
0.0
 11
-43.5832354810051683
 21
-289.112781455409106
 31
0.0
 12
-43.6132354810051694
 22
-289.2927814554091128
 32
0.0
 13
-43.6132354810051694
 23
-289.2927814554091128
 33
0.0
  0
INSERT
  5
379
  8
0
  2
*U15
 10
0.0
 20
0.0
 30
0.0
  0
POINT
  5
37A
  8
DEFPOINTS
 62
     0
 10
-102.2160823082606953
 20
-124.2927814554089991
 30
0.0
  0
POINT
  5
37B
  8
DEFPOINTS
 62
     0
 10
-102.2160823082606953
 20
-289.2927814554091128
 30
0.0
  0
POINT
  5
37C
  8
DEFPOINTS
 62
     0
 10
-43.6132354810051694
 20
-289.2927814554091128
 30
0.0
  0
ENDBLK
  5
372
  8
0
  0
BLOCK
  8
0
  2
*U9
 70
     1
 10
0.0
 20
0.0
 30
0.0
  3
*U9
  1

  0
TEXT
  5
3C3
  8
0
 62
     0
 10
273.708037661161427
 20
-41.381246666868762
 30
0.0
 40
0.18
  1
594.0000
  0
ENDBLK
  5
3C5
  8
0
  0
BLOCK
  8
0
  2
*U10
 70
     1
 10
0.0
 20
0.0
 30
0.0
  3
*U10
  1

  0
TEXT
  5
3CA
  8
0
 62
     0
 10
-98.1468747952423826
 20
-314.3812466668687762
 30
0.0
 40
0.18
  1
50.0000
  0
ENDBLK
  5
3CC
  8
0
  0
BLOCK
  8
0
  2
*U11
 70
     1
 10
0.0
 20
0.0
 30
0.0
  3
*U11
  1

  0
TEXT
  5
3CE
  8
0
 62
     0
 10
158.8677194409675906
 20
-41.3812466668687478
 30
0.0
 40
0.18
  1
496.0000
  0
ENDBLK
  5
3D0
  8
0
  0
BLOCK
  8
0
  2
*U12
 70
     1
 10
0.0
 20
0.0
 30
0.0
  3
*U12
  1

  0
TEXT
  5
3D2
  8
0
 62
     0
 10
-27.2923288654480913
 20
123.8687533331312949
 30
0.0
 40
0.18
  1
165.5000
  0
ENDBLK
  5
3D4
  8
0
  0
BLOCK
  8
0
  2
*U13
 70
     1
 10
0.0
 20
0.0
 30
0.0
  3
*U13
  1

  0
TEXT
  5
3D6
  8
0
 62
     0
 10
-38.9945624752843401
 20
-41.1312466668687335
 30
0.0
 40
0.18
  1
164.5000
  0
ENDBLK
  5
3D8
  8
0
  0
BLOCK
  8
0
  2
*U14
 70
     1
 10
0.0
 20
0.0
 30
0.0
  3
*U14
  1

  0
TEXT
  5
3DA
  8
0
 62
     0
 10
-50.4652462450638382
 20
-41.6312466668687335
 30
0.0
 40
0.18
  1
165.5000
  0
ENDBLK
  5
3DC
  8
0
  0
BLOCK
  8
0
  2
*U15
 70
     1
 10
0.0
 20
0.0
 30
0.0
  3
*U15
  1

  0
TEXT
  5
3DE
  8
0
 62
     0
 10
-44.1453159721375812
 20
-206.8812466668688046
 30
0.0
 40
0.18
  1
165.0000
  0
ENDBLK
  5
3E0
  8
0
  0
ENDSEC
  0
SECTION
  2
ENTITIES
  0
ARC
  5
1D6
  8
0
 10
-104.7160823597372996
 20
22.5538093506670485
 30
0.0
 40
27.4999997111722188
 50
137.1858540262597046
 51
180.0000000163691141
  0
ARC
  5
1D7
  8
0
 10
-143.7388828715122884
 20
58.7072185445910009
 30
0.0
 40
25.6963155383363286
 50
317.1858546677611912
 51
40.4857380666705922
  0
ARC
  5
1D8
  8
0
 10
-98.7160823399812415
 20
97.1409433427013909
 30
0.0
 40
33.4999999682795035
 50
179.9999999981565963
 51
220.4857358284932047
  0
ARC
  5
1E4
  8
0
 10
-104.7160823597372996
 20
-177.4461906493328911
 30
0.0
 40
27.4999997111722188
 50
137.1858540262595909
 51
180.0000000163691141
  0
ARC
  5
1E5
  8
0
 10
-143.7388828715122884
 20
-141.2927814554089991
 30
0.0
 40
25.6963155383363286
 50
317.1858546677610775
 51
40.4857380666705922
  0
ARC
  5
1E6
  8
0
 10
-98.7160823399812415
 20
-102.8590566572985949
 30
0.0
 40
33.4999999682795035
 50
179.9999999981565963
 51
220.4857358284928068
  0
LINE
  5
1E7
  8
0
 10
-77.2160823082607521
 20
256.7072185445910009
 30
0.0
 11
-128.2160823082606953
 21
256.7072185445910009
 31
0.0
  0
LINE
  5
1E9
  8
0
 10
-128.2160820709094935
 20
-339.2927814554089991
 30
0.0
 11
-77.2160823082607521
 21
-339.2927814554089991
 31
0.0
  0
LINE
  5
1EA
  8
0
 10
-77.2160823082607521
 20
-339.2927814554089991
 30
0.0
 11
-77.2160823082607521
 21
256.7072185445910009
 31
0.0
  0
LINE
  5
1EC
  8
0
 10
-132.2160820709094935
 20
-177.4461906571895895
 30
0.0
 11
-132.2160820709094935
 21
-335.2927814554089991
 31
0.0
  0
LINE
  5
1EE
  8
0
 10
-132.2160823082606953
 20
-102.8590566562208011
 30
0.0
 11
-132.2160820709094935
 21
22.5538093428104389
 31
0.0
  0
LINE
  5
1EF
  8
0
 10
-132.2160823082606953
 20
97.1409433437792558
 30
0.0
 11
-132.21608230826061
 21
252.7072185445910009
 31
0.0
  0
CIRCLE
  5
1F0
  8
0
 10
-102.2160823082606953
 20
206.7072185445910009
 30
0.0
 40
2.0
  0
ARC
  5
1F4
  8
0
 10
-128.2160820709094935
 20
-335.2927814554089991
 30
0.0
 40
4.0
 50
180.0
 51
270.0
  0
ARC
  5
1F5
  8
0
 10
-128.2160823082606953
 20
252.7072185445910009
 30
0.0
 40
4.0
 50
90.0
 51
180.0
  0
CIRCLE
  5
28C
  8
0
 10
-102.2160823082606953
 20
-289.2927814554089991
 30
0.0
 40
2.0
  0
CIRCLE
  5
31F
  8
0
 10
-102.2160823082606953
 20
41.2072185445910009
 30
0.0
 40
2.0
  0
CIRCLE
  5
320
  8
0
 10
-102.2160823082606953
 20
-124.2927814554089991
 30
0.0
 40
2.0
  0
ENDSEC
  0
EOF
