  0
SECTION
  2
HEADER
  9
$ACADVER
  1
AC1009
  9
$INSBASE
 10
0.0
 20
0.0
 30
0.0
  9
$EXTMIN
 10
90.929676655256173
 20
-464.06845095633491
 30
0.0
  9
$EXTMAX
 10
2137.8136858551602
 20
1335.931549043665
 30
0.0
  9
$LIMMIN
 10
0.0
 20
0.0
  9
$LIMMAX
 10
12.0
 20
9.0
  9
$ORTHOMODE
 70
     1
  9
$REGENMODE
 70
     1
  9
$FILLMODE
 70
     1
  9
$QTEXTMODE
 70
     0
  9
$MIRRTEXT
 70
     0
  9
$DRAGMODE
 70
     2
  9
$LTSCALE
 40
1.0
  9
$OSMODE
 70
  3071
  9
$ATTMODE
 70
     1
  9
$TEXTSIZE
 40
0.2
  9
$TRACEWID
 40
0.05
  9
$TEXTSTYLE
  7
STANDARD
  9
$CLAYER
  8
0
  9
$CELTYPE
  6
BYLAYER
  9
$CECOLOR
 62
   256
  9
$DIMSCALE
 40
1.0
  9
$DIMASZ
 40
0.18
  9
$DIMEXO
 40
0.0625
  9
$DIMDLI
 40
0.38
  9
$DIMRND
 40
0.0
  9
$DIMDLE
 40
0.0
  9
$DIMEXE
 40
0.18
  9
$DIMTP
 40
0.0
  9
$DIMTM
 40
0.0
  9
$DIMTXT
 40
0.18
  9
$DIMCEN
 40
0.09
  9
$DIMTSZ
 40
0.0
  9
$DIMTOL
 70
     0
  9
$DIMLIM
 70
     0
  9
$DIMTIH
 70
     1
  9
$DIMTOH
 70
     1
  9
$DIMSE1
 70
     0
  9
$DIMSE2
 70
     0
  9
$DIMTAD
 70
     0
  9
$DIMZIN
 70
     0
  9
$DIMBLK
  1

  9
$DIMASO
 70
     1
  9
$DIMSHO
 70
     1
  9
$DIMPOST
  1

  9
$DIMAPOST
  1

  9
$DIMALT
 70
     0
  9
$DIMALTD
 70
     2
  9
$DIMALTF
 40
25.399999999999999
  9
$DIMLFAC
 40
1.0
  9
$DIMTOFL
 70
     0
  9
$DIMTVP
 40
0.0
  9
$DIMTIX
 70
     0
  9
$DIMSOXD
 70
     0
  9
$DIMSAH
 70
     0
  9
$DIMBLK1
  1

  9
$DIMBLK2
  1

  9
$DIMSTYLE
  2
STANDARD
  9
$DIMCLRD
 70
     0
  9
$DIMCLRE
 70
     0
  9
$DIMCLRT
 70
     0
  9
$DIMTFAC
 40
1.0
  9
$DIMGAP
 40
0.09
  9
$LUNITS
 70
     2
  9
$LUPREC
 70
     4
  9
$SKETCHINC
 40
0.1
  9
$FILLETRAD
 40
1.0
  9
$AUNITS
 70
     0
  9
$AUPREC
 70
     0
  9
$MENU
  1
.
  9
$ELEVATION
 40
0.0
  9
$PELEVATION
 40
0.0
  9
$THICKNESS
 40
0.0
  9
$LIMCHECK
 70
     0
  9
$BLIPMODE
 70
     0
  9
$CHAMFERA
 40
5.0
  9
$CHAMFERB
 40
5.0
  9
$SKPOLY
 70
     0
  9
$TDCREATE
 40
2460087.445406551
  9
$TDUPDATE
 40
2460087.5289400928
  9
$TDINDWG
 40
0.0835374074
  9
$TDUSRTIMER
 40
0.083536875
  9
$USRTIMER
 70
     1
  9
$ANGBASE
 50
0.0
  9
$ANGDIR
 70
     0
  9
$PDMODE
 70
     0
  9
$PDSIZE
 40
0.0
  9
$PLINEWID
 40
0.0
  9
$COORDS
 70
     1
  9
$SPLFRAME
 70
     0
  9
$SPLINETYPE
 70
     6
  9
$SPLINESEGS
 70
     8
  9
$ATTDIA
 70
     1
  9
$ATTREQ
 70
     1
  9
$HANDLING
 70
     1
  9
$HANDSEED
  5
4D1
  9
$SURFTAB1
 70
     6
  9
$SURFTAB2
 70
     6
  9
$SURFTYPE
 70
     6
  9
$SURFU
 70
     6
  9
$SURFV
 70
     6
  9
$UCSNAME
  2

  9
$UCSORG
 10
0.0
 20
0.0
 30
0.0
  9
$UCSXDIR
 10
1.0
 20
0.0
 30
0.0
  9
$UCSYDIR
 10
0.0
 20
1.0
 30
0.0
  9
$PUCSNAME
  2

  9
$PUCSORG
 10
0.0
 20
0.0
 30
0.0
  9
$PUCSXDIR
 10
1.0
 20
0.0
 30
0.0
  9
$PUCSYDIR
 10
0.0
 20
1.0
 30
0.0
  9
$USERI1
 70
     0
  9
$USERI2
 70
     0
  9
$USERI3
 70
     0
  9
$USERI4
 70
     0
  9
$USERI5
 70
     0
  9
$USERR1
 40
0.0
  9
$USERR2
 40
0.0
  9
$USERR3
 40
0.0
  9
$USERR4
 40
0.0
  9
$USERR5
 40
0.0
  9
$WORLDVIEW
 70
     1
  9
$SHADEDGE
 70
     3
  9
$SHADEDIF
 70
    70
  9
$TILEMODE
 70
     1
  9
$MAXACTVP
 70
    64
  9
$PLIMCHECK
 70
     0
  9
$PEXTMIN
 10
0.0
 20
0.0
 30
0.0
  9
$PEXTMAX
 10
0.0
 20
0.0
 30
0.0
  9
$PLIMMIN
 10
0.0
 20
0.0
  9
$PLIMMAX
 10
12.0
 20
9.0
  9
$UNITMODE
 70
     0
  9
$VISRETAIN
 70
     1
  9
$PLINEGEN
 70
     0
  9
$PSLTSCALE
 70
     1
  0
ENDSEC
  0
SECTION
  2
TABLES
  0
TABLE
  2
VPORT
 70
     1
  0
VPORT
  2
*ACTIVE
 70
     0
 10
0.0
 20
0.0
 11
1.0
 21
1.0
 12
940.69816707384462
 22
309.74494882514858
 13
0.0
 23
0.0
 14
0.5
 24
0.5
 15
0.5
 25
0.5
 16
0.0
 26
0.0
 36
1.0
 17
0.0
 27
0.0
 37
0.0
 40
2872.7469660859178
 41
2.1298076923076921
 42
50.0
 43
0.0
 44
0.0
 50
0.0
 51
0.0
 71
     0
 72
  1000
 73
     1
 74
     3
 75
     0
 76
     0
 77
     0
 78
     0
  0
ENDTAB
  0
TABLE
  2
LTYPE
 70
     2
  0
LTYPE
  2
CONTINUOUS
 70
     0
  3
Solid line
 72
    65
 73
     0
 40
0.0
  0
ENDTAB
  0
TABLE
  2
LAYER
 70
     2
  0
LAYER
  2
0
 70
     0
 62
     7
  6
CONTINUOUS
  0
LAYER
  2
DEFPOINTS
 70
     0
 62
     7
  6
CONTINUOUS
  0
ENDTAB
  0
TABLE
  2
STYLE
 70
     2
  0
STYLE
  2
STANDARD
 70
     0
 40
0.0
 41
1.0
 50
0.0
 71
     0
 42
0.2
  3
txt
  4

  0
STYLE
  2
ANNOTATIVE
 70
     0
 40
0.0
 41
1.0
 50
0.0
 71
     0
 42
0.2
  3
txt
  4

  0
ENDTAB
  0
TABLE
  2
VIEW
 70
     5
  0
ENDTAB
  0
TABLE
  2
UCS
 70
     0
  0
ENDTAB
  0
TABLE
  2
APPID
 70
    12
  0
APPID
  2
ACAD
 70
     0
  0
APPID
  2
ACADANNOPO
 70
     0
  0
APPID
  2
ACADANNOTATIVE
 70
     0
  0
APPID
  2
ACAD_DSTYLE_DIMJAG
 70
     0
  0
APPID
  2
ACAD_DSTYLE_DIMTALN
 70
     0
  0
APPID
  2
ACAD_MLEADERVER
 70
     0
  0
APPID
  2
ACAD_NAV_VCDISPLAY
 70
     0
  0
APPID
  2
ACADANNOMONITORALERTICONDI
 70
     0
  0
APPID
  2
ACAD_EXEMPT_FROM_CAD_STANDARDS
 70
     0
  0
APPID
  2
ACAD_DSTYLE_DIMRADIAL_EXTENSION
 70
     0
  0
APPID
  2
GRADIENTCOLOR1ACI
 70
     0
  0
APPID
  2
GRADIENTCOLOR2ACI
 70
     0
  0
ENDTAB
  0
TABLE
  2
DIMSTYLE
 70
     2
  0
DIMSTYLE
  2
STANDARD
 70
     0
  3

  4

  5

  6

  7

 40
1.0
 41
0.18
 42
0.0625
 43
0.38
 44
0.18
 45
0.0
 46
0.0
 47
0.0
 48
0.0
140
0.18
141
0.09
142
0.0
143
25.399999999999999
144
1.0
145
0.0
146
1.0
147
0.09
 71
     0
 72
     0
 73
     1
 74
     1
 75
     0
 76
     0
 77
     0
 78
     0
170
     0
171
     2
172
     0
173
     0
174
     0
175
     0
176
     0
177
     0
178
     0
  0
DIMSTYLE
  2
ANNOTATIVE
 70
     0
  3

  4

  5

  6

  7

 40
0.0
 41
0.18
 42
0.0625
 43
0.38
 44
0.18
 45
0.0
 46
0.0
 47
0.0
 48
0.0
140
0.18
141
0.09
142
0.0
143
25.399999999999999
144
1.0
145
0.0
146
1.0
147
0.09
 71
     0
 72
     0
 73
     1
 74
     1
 75
     0
 76
     0
 77
     0
 78
     0
170
     0
171
     2
172
     0
173
     0
174
     0
175
     0
176
     0
177
     0
178
     0
  0
ENDTAB
  0
ENDSEC
  0
SECTION
  2
BLOCKS
  0
BLOCK
  8
0
  2
$MODEL_SPACE
 70
     0
 10
0.0
 20
0.0
 30
0.0
  3
$MODEL_SPACE
  1

  0
ENDBLK
  5
21
  8
0
  0
BLOCK
 67
     1
  8
0
  2
$PAPER_SPACE
 70
     0
 10
0.0
 20
0.0
 30
0.0
  3
$PAPER_SPACE
  1

  0
ENDBLK
  5
5B
 67
     1
  8
0
  0
BLOCK
  8
0
  2
*D1
 70
     1
 10
0.0
 20
0.0
 30
0.0
  3
*D1
  1

  0
ARC
  5
1F6
  8
0
 62
     0
 10
18.02101360175509
 20
15.908046954123259
 30
0.0
 40
2.2933784646143871
 50
211.9012224053273
 51
261.77695710495692
  0
ARC
  5
1F7
  8
0
 62
     0
 10
18.02101360175509
 20
15.908046954123259
 30
0.0
 40
2.2933784646143871
 50
278.22304289504291
 51
328.0987775946727
  0
SOLID
  5
1F8
  8
0
 62
     0
 10
16.04795472647503
 20
14.68125432027303
 30
0.0
 11
16.100097419125088
 21
14.71093831601487
 31
0.0
 12
15.984974085574549
 22
14.852524396094131
 32
0.0
 13
15.984974085574549
 23
14.852524396094131
 33
0.0
  0
SOLID
  5
1F9
  8
0
 62
     0
 10
19.941929784385088
 20
14.71093831601487
 30
0.0
 11
19.99407247703515
 21
14.68125432027303
 31
0.0
 12
20.057053117935641
 22
14.852524396094131
 32
0.0
 13
20.057053117935641
 23
14.852524396094131
 33
0.0
  0
INSERT
  5
1FA
  8
0
  2
*U14
 10
0.0
 20
0.0
 30
0.0
  0
POINT
  5
1FB
  8
DEFPOINTS
 62
     0
 10
17.204163632672142
 20
13.76507217359824
 30
0.0
  0
POINT
  5
1FC
  8
DEFPOINTS
 62
     0
 10
17.560765729755211
 20
15.669445489210579
 30
0.0
  0
POINT
  5
1FD
  8
DEFPOINTS
 62
     0
 10
24.524688620947451
 20
12.53641509811397
 30
0.0
  0
POINT
  5
1FE
  8
DEFPOINTS
 62
     0
 10
18.48126147375498
 20
15.669445489210579
 30
0.0
  0
POINT
  5
1FF
  8
DEFPOINTS
 62
     0
 10
11.51733858256274
 20
12.53641509811397
 30
0.0
  0
ENDBLK
  5
1DC
  8
0
  0
BLOCK
  8
0
  2
*D2
 70
     1
 10
0.0
 20
0.0
 30
0.0
  3
*D2
  1

  0
LINE
  5
20E
  8
0
 62
     0
 10
26.406559578242721
 20
12.63856930046015
 30
0.0
 11
26.226559578242728
 21
12.63856930046015
 31
0.0
  0
LINE
  5
20F
  8
0
 62
     0
 10
26.226559578242728
 20
12.63856930046015
 30
0.0
 11
25.137330084329971
 21
12.13985622966614
 31
0.0
  0
INSERT
  5
210
  8
0
  2
*U15
 10
0.0
 20
0.0
 30
0.0
  0
SOLID
  5
211
  8
0
 62
     0
 10
25.12484114562681
 20
12.16713307717586
 30
0.0
 11
25.149819023033132
 21
12.11257938215642
 31
0.0
 12
24.973668999271641
 22
12.064922597447159
 32
0.0
 13
24.973668999271641
 23
12.064922597447159
 33
0.0
  0
LINE
  5
212
  8
0
 62
     0
 10
23.974440748947568
 20
11.64862464067507
 30
0.0
 11
24.154440748947579
 21
11.64862464067507
 31
0.0
  0
LINE
  5
213
  8
0
 62
     0
 10
24.064440748947568
 20
11.55862464067507
 30
0.0
 11
24.064440748947568
 21
11.73862464067507
 31
0.0
  0
POINT
  5
214
  8
DEFPOINTS
 62
     0
 10
24.973668999271641
 20
12.064922597447159
 30
0.0
  0
POINT
  5
215
  8
DEFPOINTS
 62
     0
 10
24.064440748947568
 20
11.64862464067507
 30
0.0
  0
ENDBLK
  5
204
  8
0
  0
BLOCK
  8
0
  2
*D3
 70
     1
 10
0.0
 20
0.0
 30
0.0
  3
*D3
  1

  0
LINE
  5
246
  8
0
 62
     0
 10
3.2528163601943691
 20
-2.0517173996674818
 30
0.0
 11
3.2528163601943691
 21
-11.462414322777979
 31
0.0
  0
LINE
  5
247
  8
0
 62
     0
 10
63.730756103282829
 20
-2.0517173996674809
 30
0.0
 11
63.730756103282829
 21
-11.462414322777979
 31
0.0
  0
LINE
  5
248
  8
0
 62
     0
 10
3.4328163601943689
 20
-11.28241432277798
 30
0.0
 11
32.957557036649931
 21
-11.28241432277798
 31
0.0
  0
LINE
  5
249
  8
0
 62
     0
 10
63.550756103282829
 20
-11.28241432277798
 30
0.0
 11
34.026015426827279
 21
-11.28241432277798
 31
0.0
  0
SOLID
  5
24A
  8
0
 62
     0
 10
3.4328163601943689
 20
-11.25241432277798
 30
0.0
 11
3.4328163601943689
 21
-11.312414322777981
 31
0.0
 12
3.2528163601943691
 22
-11.28241432277798
 32
0.0
 13
3.2528163601943691
 23
-11.28241432277798
 33
0.0
  0
SOLID
  5
24B
  8
0
 62
     0
 10
63.550756103282829
 20
-11.25241432277798
 30
0.0
 11
63.550756103282829
 21
-11.312414322777981
 31
0.0
 12
63.730756103282829
 22
-11.28241432277798
 32
0.0
 13
63.730756103282829
 23
-11.28241432277798
 33
0.0
  0
INSERT
  5
24C
  8
0
  2
*U16
 10
0.0
 20
0.0
 30
0.0
  0
POINT
  5
24D
  8
DEFPOINTS
 62
     0
 10
3.2528163601943691
 20
-1.989217399667482
 30
0.0
  0
POINT
  5
24E
  8
DEFPOINTS
 62
     0
 10
63.730756103282829
 20
-1.9892173996674809
 30
0.0
  0
POINT
  5
24F
  8
DEFPOINTS
 62
     0
 10
63.730756103282829
 20
-11.28241432277798
 30
0.0
  0
ENDBLK
  5
23A
  8
0
  0
BLOCK
  8
0
  2
*D5
 70
     1
 10
0.0
 20
0.0
 30
0.0
  3
*D5
  1

  0
LINE
  5
298
  8
0
 62
     0
 10
701.05998231611727
 20
966.26770334314688
 30
0.0
 11
701.05998231611727
 21
1002.559863562378
 31
0.0
  0
LINE
  5
299
  8
0
 62
     0
 10
731.05998231611727
 20
996.26770334314699
 30
0.0
 11
731.05998231611727
 21
1002.559863562378
 31
0.0
  0
LINE
  5
29A
  8
0
 62
     0
 10
701.23998231611733
 20
1002.379863562379
 30
0.0
 11
715.52679677723609
 21
1002.379863562379
 31
0.0
  0
LINE
  5
29B
  8
0
 62
     0
 10
730.87998231611743
 20
1002.379863562379
 30
0.0
 11
716.59316785499868
 21
1002.379863562379
 31
0.0
  0
SOLID
  5
29C
  8
0
 62
     0
 10
701.23998231611733
 20
1002.409863562379
 30
0.0
 11
701.23998231611733
 21
1002.349863562378
 31
0.0
 12
701.05998231611727
 22
1002.379863562379
 32
0.0
 13
701.05998231611727
 23
1002.379863562379
 33
0.0
  0
SOLID
  5
29D
  8
0
 62
     0
 10
730.87998231611743
 20
1002.409863562379
 30
0.0
 11
730.87998231611743
 21
1002.349863562378
 31
0.0
 12
731.05998231611727
 22
1002.379863562379
 32
0.0
 13
731.05998231611727
 23
1002.379863562379
 33
0.0
  0
INSERT
  5
29E
  8
0
  2
*U17
 10
0.0
 20
0.0
 30
0.0
  0
POINT
  5
29F
  8
DEFPOINTS
 62
     0
 10
701.05998231611727
 20
966.20520334314699
 30
0.0
  0
POINT
  5
2A0
  8
DEFPOINTS
 62
     0
 10
731.05998231611727
 20
996.20520334314699
 30
0.0
  0
POINT
  5
2A1
  8
DEFPOINTS
 62
     0
 10
731.05998231611727
 20
1002.379863562379
 30
0.0
  0
ENDBLK
  5
28C
  8
0
  0
BLOCK
  8
0
  2
*D6
 70
     1
 10
0.0
 20
0.0
 30
0.0
  3
*D6
  1

  0
LINE
  5
3D7
  8
0
 62
     0
 10
821.12248231611738
 20
991.2052033431471
 30
0.0
 11
848.48117907571725
 21
991.2052033431471
 31
0.0
  0
LINE
  5
3D8
  8
0
 62
     0
 10
821.12248231611738
 20
899.20520334314699
 30
0.0
 11
848.48117907571725
 21
899.20520334314699
 31
0.0
  0
LINE
  5
3D9
  8
0
 62
     0
 10
848.30117907571719
 20
991.02520334314715
 30
0.0
 11
848.30117907571719
 21
945.38710648093706
 31
0.0
  0
LINE
  5
3DA
  8
0
 62
     0
 10
848.30117907571719
 20
899.38520334314694
 30
0.0
 11
848.30117907571719
 21
945.02330020535715
 31
0.0
  0
SOLID
  5
3DB
  8
0
 62
     0
 10
848.27117907571733
 20
991.02520334314715
 30
0.0
 11
848.33117907571716
 21
991.02520334314715
 31
0.0
 12
848.30117907571719
 22
991.2052033431471
 32
0.0
 13
848.30117907571719
 23
991.2052033431471
 33
0.0
  0
SOLID
  5
3DC
  8
0
 62
     0
 10
848.27117907571733
 20
899.38520334314694
 30
0.0
 11
848.33117907571716
 21
899.38520334314694
 31
0.0
 12
848.30117907571719
 22
899.20520334314699
 32
0.0
 13
848.30117907571719
 23
899.20520334314699
 33
0.0
  0
INSERT
  5
3DD
  8
0
  2
*U21
 10
0.0
 20
0.0
 30
0.0
  0
POINT
  5
3DE
  8
DEFPOINTS
 62
     0
 10
821.05998231611727
 20
991.2052033431471
 30
0.0
  0
POINT
  5
3DF
  8
DEFPOINTS
 62
     0
 10
821.05998231611727
 20
899.20520334314699
 30
0.0
  0
POINT
  5
3E0
  8
DEFPOINTS
 62
     0
 10
848.30117907571719
 20
899.20520334314699
 30
0.0
  0
ENDBLK
  5
2BB
  8
0
  0
BLOCK
  8
0
  2
*D7
 70
     1
 10
0.0
 20
0.0
 30
0.0
  3
*D7
  1

  0
LINE
  5
362
  8
0
 62
     0
 10
821.18498231611727
 20
899.20520334314699
 30
0.0
 11
873.52437054683719
 21
899.20520334314699
 31
0.0
  0
LINE
  5
363
  8
0
 62
     0
 10
821.18498231611727
 20
699.20520334314699
 30
0.0
 11
873.52437054683696
 21
699.20520334314699
 31
0.0
  0
LINE
  5
364
  8
0
 62
     0
 10
873.34437054683724
 20
899.02520334314704
 30
0.0
 11
873.34437054683724
 21
799.38710648093695
 31
0.0
  0
LINE
  5
365
  8
0
 62
     0
 10
873.34437054683713
 20
699.38520334314694
 30
0.0
 11
873.34437054683724
 21
799.02330020535703
 31
0.0
  0
SOLID
  5
366
  8
0
 62
     0
 10
873.31437054683727
 20
899.02520334314704
 30
0.0
 11
873.37437054683721
 21
899.02520334314704
 31
0.0
 12
873.34437054683724
 22
899.20520334314699
 32
0.0
 13
873.34437054683724
 23
899.20520334314699
 33
0.0
  0
SOLID
  5
367
  8
0
 62
     0
 10
873.31437054683715
 20
699.38520334314694
 30
0.0
 11
873.37437054683699
 21
699.38520334314694
 31
0.0
 12
873.34437054683713
 22
699.20520334314699
 32
0.0
 13
873.34437054683713
 23
699.20520334314699
 33
0.0
  0
INSERT
  5
368
  8
0
  2
*U18
 10
0.0
 20
0.0
 30
0.0
  0
POINT
  5
369
  8
DEFPOINTS
 62
     0
 10
821.12248231611738
 20
899.20520334314699
 30
0.0
  0
POINT
  5
36A
  8
DEFPOINTS
 62
     0
 10
821.12248231611738
 20
699.20520334314699
 30
0.0
  0
POINT
  5
36B
  8
DEFPOINTS
 62
     0
 10
873.34437054683713
 20
699.20520334314699
 30
0.0
  0
ENDBLK
  5
2D7
  8
0
  0
BLOCK
  8
0
  2
*D8
 70
     1
 10
0.0
 20
0.0
 30
0.0
  3
*D8
  1

  0
LINE
  5
3C2
  8
0
 62
     0
 10
821.12248231611738
 20
599.20520334314699
 30
0.0
 11
912.9481582281428
 21
599.20520334314699
 31
0.0
  0
LINE
  5
3C3
  8
0
 62
     0
 10
821.12248231611738
 20
996.20520334314699
 30
0.0
 11
912.94815822814303
 21
996.20520334314699
 31
0.0
  0
LINE
  5
3C4
  8
0
 62
     0
 10
912.76815822814285
 20
599.38520334314694
 30
0.0
 11
912.76815822814285
 21
797.52323881381551
 31
0.0
  0
LINE
  5
3C5
  8
0
 62
     0
 10
912.76815822814285
 20
996.02520334314715
 30
0.0
 11
912.76815822814285
 21
797.88716787247836
 31
0.0
  0
SOLID
  5
3C6
  8
0
 62
     0
 10
912.73815822814277
 20
599.38520334314694
 30
0.0
 11
912.79815822814282
 21
599.38520334314694
 31
0.0
 12
912.76815822814285
 22
599.20520334314699
 32
0.0
 13
912.76815822814285
 23
599.20520334314699
 33
0.0
  0
SOLID
  5
3C7
  8
0
 62
     0
 10
912.73815822814288
 20
996.02520334314715
 30
0.0
 11
912.79815822814305
 21
996.02520334314715
 31
0.0
 12
912.76815822814285
 22
996.20520334314699
 32
0.0
 13
912.76815822814285
 23
996.20520334314699
 33
0.0
  0
INSERT
  5
3C8
  8
0
  2
*U20
 10
0.0
 20
0.0
 30
0.0
  0
POINT
  5
3C9
  8
DEFPOINTS
 62
     0
 10
821.05998231611727
 20
599.20520334314699
 30
0.0
  0
POINT
  5
3CA
  8
DEFPOINTS
 62
     0
 10
821.05998231611727
 20
996.20520334314699
 30
0.0
  0
POINT
  5
3CB
  8
DEFPOINTS
 62
     0
 10
912.76815822814285
 20
996.20520334314699
 30
0.0
  0
ENDBLK
  5
322
  8
0
  0
BLOCK
  8
0
  2
*D9
 70
     1
 10
0.0
 20
0.0
 30
0.0
  3
*D9
  1

  0
LINE
  5
37E
  8
0
 62
     0
 10
821.24748231611727
 20
699.20520334314699
 30
0.0
 11
955.47749082358098
 21
699.20520334314699
 31
0.0
  0
LINE
  5
37F
  8
0
 62
     0
 10
821.24748231611727
 20
229.2052033431471
 30
0.0
 11
955.47749082358075
 21
229.2052033431471
 31
0.0
  0
LINE
  5
380
  8
0
 62
     0
 10
955.29749082358103
 20
699.02520334314704
 30
0.0
 11
955.29749082358103
 21
464.38710648093689
 31
0.0
  0
LINE
  5
381
  8
0
 62
     0
 10
955.29749082358092
 20
229.38520334314711
 30
0.0
 11
955.29749082358103
 21
464.02330020535709
 31
0.0
  0
SOLID
  5
382
  8
0
 62
     0
 10
955.26749082358106
 20
699.02520334314704
 30
0.0
 11
955.327490823581
 21
699.02520334314704
 31
0.0
 12
955.29749082358103
 22
699.20520334314699
 32
0.0
 13
955.29749082358103
 23
699.20520334314699
 33
0.0
  0
SOLID
  5
383
  8
0
 62
     0
 10
955.26749082358094
 20
229.38520334314711
 30
0.0
 11
955.32749082358077
 21
229.38520334314711
 31
0.0
 12
955.29749082358092
 22
229.2052033431471
 32
0.0
 13
955.29749082358092
 23
229.2052033431471
 33
0.0
  0
INSERT
  5
384
  8
0
  2
*U19
 10
0.0
 20
0.0
 30
0.0
  0
POINT
  5
385
  8
DEFPOINTS
 62
     0
 10
821.18498231611727
 20
699.20520334314699
 30
0.0
  0
POINT
  5
386
  8
DEFPOINTS
 62
     0
 10
821.18498231611716
 20
229.2052033431471
 30
0.0
  0
POINT
  5
387
  8
DEFPOINTS
 62
     0
 10
955.29749082358092
 20
229.2052033431471
 30
0.0
  0
ENDBLK
  5
372
  8
0
  0
BLOCK
  8
0
  2
*D10
 70
     1
 10
0.0
 20
0.0
 30
0.0
  3
*D10
  1

  0
LINE
  5
3F0
  8
0
 62
     0
 10
744.13403278235774
 20
333.37952267540311
 30
0.0
 11
743.95403278235767
 21
333.37952267540311
 31
0.0
  0
LINE
  5
3F1
  8
0
 62
     0
 10
743.95403278235767
 20
333.37952267540311
 30
0.0
 11
732.32329328311425
 21
320.91663655302818
 31
0.0
  0
INSERT
  5
3F2
  8
0
  2
*U22
 10
0.0
 20
0.0
 30
0.0
  0
SOLID
  5
3F3
  8
0
 62
     0
 10
732.30136049484656
 20
320.93710488952161
 30
0.0
 11
732.34522607138183
 21
320.8961682165347
 31
0.0
 12
732.20048326415349
 22
320.78503982342272
 32
0.0
 13
732.20048326415349
 23
320.78503982342272
 33
0.0
  0
LINE
  5
3F4
  8
0
 62
     0
 10
725.96998231611747
 20
314.20520334314699
 30
0.0
 11
726.14998231611753
 21
314.20520334314699
 31
0.0
  0
LINE
  5
3F5
  8
0
 62
     0
 10
726.05998231611761
 20
314.1152033431469
 30
0.0
 11
726.05998231611761
 21
314.29520334314691
 31
0.0
  0
POINT
  5
3F6
  8
DEFPOINTS
 62
     0
 10
732.20048326415349
 20
320.78503982342272
 30
0.0
  0
POINT
  5
3F7
  8
DEFPOINTS
 62
     0
 10
726.05998231611761
 20
314.20520334314699
 30
0.0
  0
ENDBLK
  5
3E6
  8
0
  0
BLOCK
  8
0
  2
*D11
 70
     1
 10
0.0
 20
0.0
 30
0.0
  3
*D11
  1

  0
LINE
  5
408
  8
0
 62
     0
 10
726.05998231611761
 20
314.17770334314702
 30
0.0
 11
726.05998231611761
 21
320.07308467940402
 31
0.0
  0
LINE
  5
409
  8
0
 62
     0
 10
796.05998231611738
 20
314.2677033431471
 30
0.0
 11
796.05998231611738
 21
320.07308467940402
 31
0.0
  0
LINE
  5
40A
  8
0
 62
     0
 10
726.23998231611745
 20
319.89308467940401
 30
0.0
 11
760.52747208419385
 21
319.89308467940401
 31
0.0
  0
LINE
  5
40B
  8
0
 62
     0
 10
795.87998231611743
 20
319.89308467940401
 30
0.0
 11
761.59249254804115
 21
319.89308467940401
 31
0.0
  0
SOLID
  5
40C
  8
0
 62
     0
 10
726.23998231611745
 20
319.92308467940393
 30
0.0
 11
726.23998231611745
 21
319.86308467940398
 31
0.0
 12
726.05998231611761
 22
319.89308467940401
 32
0.0
 13
726.05998231611761
 23
319.89308467940401
 33
0.0
  0
SOLID
  5
40D
  8
0
 62
     0
 10
795.87998231611743
 20
319.92308467940393
 30
0.0
 11
795.87998231611743
 21
319.86308467940398
 31
0.0
 12
796.05998231611738
 22
319.89308467940401
 32
0.0
 13
796.05998231611738
 23
319.89308467940401
 33
0.0
  0
INSERT
  5
40E
  8
0
  2
*U23
 10
0.0
 20
0.0
 30
0.0
  0
POINT
  5
40F
  8
DEFPOINTS
 62
     0
 10
726.05998231611761
 20
314.1152033431469
 30
0.0
  0
POINT
  5
410
  8
DEFPOINTS
 62
     0
 10
796.05998231611738
 20
314.2052033431471
 30
0.0
  0
POINT
  5
411
  8
DEFPOINTS
 62
     0
 10
796.05998231611738
 20
319.89308467940401
 30
0.0
  0
ENDBLK
  5
3FC
  8
0
  0
BLOCK
  8
0
  2
*D12
 70
     1
 10
0.0
 20
0.0
 30
0.0
  3
*D12
  1

  0
LINE
  5
422
  8
0
 62
     0
 10
726.08748231611753
 20
314.20520334314699
 30
0.0
 11
712.77664994862823
 21
314.20520334314699
 31
0.0
  0
LINE
  5
423
  8
0
 62
     0
 10
725.99748231611727
 20
264.2052033431471
 30
0.0
 11
712.77664994862823
 21
264.2052033431471
 31
0.0
  0
LINE
  5
424
  8
0
 62
     0
 10
712.95664994862818
 20
314.02520334314698
 30
0.0
 11
712.95664994862818
 21
289.38710648093701
 31
0.0
  0
LINE
  5
425
  8
0
 62
     0
 10
712.95664994862818
 20
264.38520334314711
 30
0.0
 11
712.95664994862818
 21
289.02330020535709
 31
0.0
  0
SOLID
  5
426
  8
0
 62
     0
 10
712.9266499486281
 20
314.02520334314698
 30
0.0
 11
712.98664994862816
 21
314.02520334314698
 31
0.0
 12
712.95664994862818
 22
314.20520334314699
 32
0.0
 13
712.95664994862818
 23
314.20520334314699
 33
0.0
  0
SOLID
  5
427
  8
0
 62
     0
 10
712.9266499486281
 20
264.38520334314711
 30
0.0
 11
712.98664994862816
 21
264.38520334314711
 31
0.0
 12
712.95664994862818
 22
264.2052033431471
 32
0.0
 13
712.95664994862818
 23
264.2052033431471
 33
0.0
  0
INSERT
  5
428
  8
0
  2
*U24
 10
0.0
 20
0.0
 30
0.0
  0
POINT
  5
429
  8
DEFPOINTS
 62
     0
 10
726.14998231611753
 20
314.20520334314699
 30
0.0
  0
POINT
  5
42A
  8
DEFPOINTS
 62
     0
 10
726.05998231611727
 20
264.2052033431471
 30
0.0
  0
POINT
  5
42B
  8
DEFPOINTS
 62
     0
 10
712.95664994862818
 20
264.2052033431471
 30
0.0
  0
ENDBLK
  5
416
  8
0
  0
BLOCK
  8
0
  2
*D13
 70
     1
 10
0.0
 20
0.0
 30
0.0
  3
*D13
  1

  0
LINE
  5
43C
  8
0
 62
     0
 10
806.94896757838399
 20
699.20520334314699
 30
0.0
 11
851.22944520291412
 21
699.20520334314699
 31
0.0
  0
LINE
  5
43D
  8
0
 62
     0
 10
771.12248231611716
 20
599.20520334314699
 30
0.0
 11
851.22944520291412
 21
599.20520334314699
 31
0.0
  0
LINE
  5
43E
  8
0
 62
     0
 10
851.04944520291417
 20
699.02520334314704
 30
0.0
 11
851.04944520291417
 21
649.38710648093695
 31
0.0
  0
LINE
  5
43F
  8
0
 62
     0
 10
851.04944520291417
 20
599.38520334314694
 30
0.0
 11
851.04944520291417
 21
649.02330020535703
 31
0.0
  0
SOLID
  5
440
  8
0
 62
     0
 10
851.01944520291431
 20
699.02520334314704
 30
0.0
 11
851.07944520291414
 21
699.02520334314704
 31
0.0
 12
851.04944520291417
 22
699.20520334314699
 32
0.0
 13
851.04944520291417
 23
699.20520334314699
 33
0.0
  0
SOLID
  5
441
  8
0
 62
     0
 10
851.01944520291431
 20
599.38520334314694
 30
0.0
 11
851.07944520291414
 21
599.38520334314694
 31
0.0
 12
851.04944520291417
 22
599.20520334314699
 32
0.0
 13
851.04944520291417
 23
599.20520334314699
 33
0.0
  0
INSERT
  5
442
  8
0
  2
*U25
 10
0.0
 20
0.0
 30
0.0
  0
POINT
  5
443
  8
DEFPOINTS
 62
     0
 10
806.88646757838399
 20
699.20520334314699
 30
0.0
  0
POINT
  5
444
  8
DEFPOINTS
 62
     0
 10
771.05998231611727
 20
599.20520334314699
 30
0.0
  0
POINT
  5
445
  8
DEFPOINTS
 62
     0
 10
851.04944520291417
 20
599.20520334314699
 30
0.0
  0
ENDBLK
  5
430
  8
0
  0
BLOCK
  8
0
  2
*U14
 70
     1
 10
0.0
 20
0.0
 30
0.0
  3
*U14
  1

  0
TEXT
  5
4A2
  8
0
 62
     0
 10
17.75561796737583
 20
13.52620327804911
 30
0.0
 40
0.18
  1
125°
  0
ENDBLK
  5
4A4
  8
0
  0
BLOCK
  8
0
  2
*U15
 70
     1
 10
0.0
 20
0.0
 30
0.0
  3
*U15
  1

  0
TEXT
  5
4A6
  8
0
 62
     0
 10
26.476791501844371
 20
12.550104089000399
 30
0.0
 40
0.18
  1
R1.0000
  0
ENDBLK
  5
4A8
  8
0
  0
BLOCK
  8
0
  2
*U16
 70
     1
 10
0.0
 20
0.0
 30
0.0
  3
*U16
  1

  0
TEXT
  5
4AA
  8
0
 62
     0
 10
33.038102739242007
 20
-11.37087953423773
 30
0.0
 40
0.18
  1
60.4779
  0
ENDBLK
  5
4AC
  8
0
  0
BLOCK
  8
0
  2
*U17
 70
     1
 10
0.0
 20
0.0
 30
0.0
  3
*U17
  1

  0
TEXT
  5
4AE
  8
0
 62
     0
 10
715.60623743207907
 20
1002.29145974246
 30
0.0
 40
0.18
  1
30.0000
  0
ENDBLK
  5
4B0
  8
0
  0
BLOCK
  8
0
  2
*U18
 70
     1
 10
0.0
 20
0.0
 30
0.0
  3
*U18
  1

  0
TEXT
  5
4B2
  8
0
 62
     0
 10
872.82229687698725
 20
799.11673813168738
 30
0.0
 40
0.18
  1
200.0000
  0
ENDBLK
  5
4B4
  8
0
  0
BLOCK
  8
0
  2
*U19
 70
     1
 10
0.0
 20
0.0
 30
0.0
  3
*U19
  1

  0
TEXT
  5
4B6
  8
0
 62
     0
 10
954.77750446614584
 20
464.11673813168738
 30
0.0
 40
0.18
  1
470.0000
  0
ENDBLK
  5
4B8
  8
0
  0
BLOCK
  8
0
  2
*U20
 70
     1
 10
0.0
 20
0.0
 30
0.0
  3
*U20
  1

  0
TEXT
  5
4BA
  8
0
 62
     0
 10
912.2444883782108
 20
797.61679952322913
 30
0.0
 40
0.18
  1
397.0000
  0
ENDBLK
  5
4BC
  8
0
  0
BLOCK
  8
0
  2
*U21
 70
     1
 10
0.0
 20
0.0
 30
0.0
  3
*U21
  1

  0
TEXT
  5
4BE
  8
0
 62
     0
 10
847.84749558322062
 20
945.11673813168761
 30
0.0
 40
0.18
  1
92.0000
  0
ENDBLK
  5
4C0
  8
0
  0
BLOCK
  8
0
  2
*U22
 70
     1
 10
0.0
 20
0.0
 30
0.0
  3
*U22
  1

  0
TEXT
  5
4C2
  8
0
 62
     0
 10
744.20426470595942
 20
333.29105746394328
 30
0.0
 40
0.18
  1
R9.0000
  0
ENDBLK
  5
4C4
  8
0
  0
BLOCK
  8
0
  2
*U23
 70
     1
 10
0.0
 20
0.0
 30
0.0
  3
*U23
  1

  0
TEXT
  5
4C6
  8
0
 62
     0
 10
760.60556212512154
 20
319.80461946794418
 30
0.0
 40
0.18
  1
70.0000
  0
ENDBLK
  5
4C8
  8
0
  0
BLOCK
  8
0
  2
*U24
 70
     1
 10
0.0
 20
0.0
 30
0.0
  3
*U24
  1

  0
TEXT
  5
4CA
  8
0
 62
     0
 10
712.50296645613139
 20
289.11673813168738
 30
0.0
 40
0.18
  1
50.0000
  0
ENDBLK
  5
4CC
  8
0
  0
BLOCK
  8
0
  2
*U25
 70
     1
 10
0.0
 20
0.0
 30
0.0
  3
*U25
  1

  0
TEXT
  5
4CE
  8
0
 62
     0
 10
850.51736471178185
 20
649.11673813168738
 30
0.0
 40
0.18
  1
100.0000
  0
ENDBLK
  5
4D0
  8
0
  0
ENDSEC
  0
SECTION
  2
ENTITIES
  0
LINE
  5
282
  8
0
 10
701.05998231611727
 20
229.2052033431471
 30
0.0
 11
821.05998231611727
 21
229.2052033431471
 31
0.0
  0
LINE
  5
283
  8
0
 10
701.05998231611727
 20
229.2052033431471
 30
0.0
 11
701.05998231611727
 21
966.20520334314699
 31
0.0
  0
LINE
  5
284
  8
0
 10
731.05998231611727
 20
996.20520334314699
 30
0.0
 11
816.05998231611738
 21
996.20520334314699
 31
0.0
  0
LINE
  5
285
  8
0
 10
821.05998231611727
 20
991.2052033431471
 30
0.0
 11
821.05998231611727
 21
935.35861253707094
 31
0.0
  0
LINE
  5
288
  8
0
 10
701.05998231611727
 20
966.20520334314699
 30
0.0
 11
731.05998231611727
 21
996.20520334314699
 31
0.0
  0
CIRCLE
  5
2A4
  8
0
 10
726.05998231611727
 20
314.2052033431471
 30
0.0
 40
9.0
  0
CIRCLE
  5
2A5
  8
0
 10
726.05998231611727
 20
264.2052033431471
 30
0.0
 40
9.0
  0
CIRCLE
  5
2A7
  8
0
 10
796.05998231611738
 20
314.2052033431471
 30
0.0
 40
9.0
  0
CIRCLE
  5
2A8
  8
0
 10
796.05998231611738
 20
264.2052033431471
 30
0.0
 40
9.0
  0
ARC
  5
2B5
  8
0
 10
793.55998260494505
 20
935.35861253707094
 30
0.0
 40
27.499999711172219
 50
317.18585402625069
 51
0.0000000163691191
  0
ARC
  5
2B6
  8
0
 10
832.58278311672018
 20
899.20520334314699
 30
0.0
 40
25.696315538336329
 50
137.18585466775301
 51
220.48573806667159
  0
ARC
  5
2B7
  8
0
 10
787.55998258518912
 20
860.77147854503653
 30
0.0
 40
33.499999968279504
 50
359.99999999815662
 51
40.485735828502897
  0
ARC
  5
2EE
  8
0
 10
793.55998260494516
 20
735.35861253707083
 30
0.0
 40
27.499999711172219
 50
317.18585402625069
 51
0.0000000163691191
  0
ARC
  5
2EF
  8
0
 10
832.58278311672041
 20
699.20520334314699
 30
0.0
 40
25.696315538336329
 50
137.18585466775249
 51
220.48573806667099
  0
ARC
  5
2F0
  8
0
 10
787.55998258518923
 20
660.77147854503653
 30
0.0
 40
33.499999968279504
 50
359.99999999815662
 51
40.48573582850306
  0
LINE
  5
312
  8
0
 10
821.05998231611727
 20
602.20520334314699
 30
0.0
 11
771.05998231611727
 21
602.20520334314699
 31
0.0
  0
LINE
  5
313
  8
0
 10
771.05998231611727
 20
602.20520334314699
 30
0.0
 11
771.05998231611727
 21
596.20520334314688
 31
0.0
  0
LINE
  5
314
  8
0
 10
771.05998231611727
 20
596.20520334314688
 30
0.0
 11
821.05998231611727
 21
596.20520334314688
 31
0.0
  0
LINE
  5
343
  8
0
 10
821.05998231611727
 20
596.20520334314699
 30
0.0
 11
821.05998231611727
 21
229.2052033431471
 31
0.0
  0
LINE
  5
3D6
  8
0
 10
816.05998231611738
 20
996.20520334314699
 30
0.0
 11
821.05998231611727
 21
991.2052033431471
 31
0.0
  0
LINE
  5
3E1
  8
0
 10
821.05998231611727
 20
860.77546634288558
 30
0.0
 11
821.05998231611727
 21
735.35861253707083
 31
0.0
  0
LINE
  5
3E2
  8
0
 10
821.05998231611727
 20
660.77546634422561
 30
0.0
 11
821.05998231611727
 21
602.2052033431471
 31
0.0
  0
ENDSEC
  0
EOF
